<?xml version="1.0" standalone="no"?>
<!DOCTYPE svg PUBLIC "-//W3C//DTD SVG 20010904//EN"
 "http://www.w3.org/TR/2001/REC-SVG-20010904/DTD/svg10.dtd">
<svg version="1.0" xmlns="http://www.w3.org/2000/svg"
 width="1200.000000pt" height="1600.000000pt" viewBox="0 0 1200.000000 1600.000000"
 preserveAspectRatio="xMidYMid meet">

<g transform="translate(0.000000,1600.000000) scale(0.100000,-0.100000)"
fill="#000000" stroke="none">
<path d="M6378 15978 c-5 -64 -7 -87 -12 -128 -25 -188 -36 -274 -45 -330 -6
-36 -13 -109 -17 -162 -5 -83 -4 -102 11 -124 18 -28 14 -54 -10 -54 -8 0 -15
-5 -15 -11 0 -23 22 -49 40 -49 11 0 20 -4 20 -9 0 -4 -23 -9 -50 -10 l-51 -1
7 35 c5 28 3 35 -10 35 -9 0 -16 5 -16 10 0 18 -22 10 -27 -10 -3 -11 -12 -20
-21 -20 -29 0 -192 -75 -189 -87 1 -6 -2 -12 -8 -11 -5 0 -9 4 -8 9 2 4 -2 20
-7 34 -8 22 -16 26 -43 24 -37 -3 -107 29 -107 48 0 7 -10 17 -23 22 -13 5
-29 16 -36 25 -7 9 -19 16 -27 16 -7 0 -18 8 -23 19 -6 10 -21 21 -35 23 -21
4 -23 3 -13 -13 6 -10 19 -20 29 -22 27 -8 23 -51 -7 -71 -25 -16 -25 -16 -45
28 -15 31 -29 45 -46 49 -25 4 -94 -21 -94 -35 0 -22 -24 -2 -65 56 -44 62
-69 83 -79 67 -3 -4 6 -19 20 -34 13 -14 24 -35 24 -47 0 -20 -1 -20 -31 -5
-40 21 -44 16 -14 -19 32 -37 31 -39 -7 -30 -18 4 -53 7 -77 5 -29 -1 -49 3
-61 14 -19 17 -60 13 -60 -6 0 -5 -8 -9 -19 -9 -29 0 -44 -27 -46 -83 -2 -67
-37 -136 -68 -137 -16 0 -19 31 -4 48 24 26 7 47 -29 37 -16 -5 -33 -9 -38 -9
-5 -1 -14 -10 -20 -21 -6 -10 -16 -25 -23 -32 -7 -8 -10 -20 -7 -28 3 -7 0
-23 -6 -35 -17 -32 -32 -12 -21 27 7 25 6 35 -8 47 -26 23 -30 20 -28 -21 2
-47 -16 -56 -23 -11 -4 28 -10 34 -34 36 -18 2 -40 -4 -57 -17 -16 -12 -32
-21 -37 -21 -6 0 -13 -16 -16 -35 -4 -19 -11 -35 -16 -35 -6 0 -10 -17 -10
-37 l0 -38 -27 45 c-14 25 -27 47 -29 49 -2 2 -14 1 -27 -3 -18 -4 -26 -15
-31 -38 -7 -40 -46 -102 -46 -75 0 23 -40 77 -57 77 -16 0 -29 25 -37 72 -7
38 -26 62 -26 34 0 -9 -4 -16 -8 -16 -15 0 -32 -74 -26 -112 5 -29 3 -38 -14
-47 -32 -17 -44 8 -40 83 3 57 1 63 -12 52 -8 -7 -23 -16 -32 -19 -11 -4 -18
-17 -18 -31 0 -19 -7 -26 -29 -31 -29 -6 -54 -29 -84 -77 -22 -35 -45 -35 -93
-3 -20 14 -50 25 -67 25 -75 0 -171 -56 -204 -118 -12 -23 -20 -42 -17 -42 2
0 0 -9 -6 -20 -12 -23 -32 -17 -29 8 3 38 -1 42 -50 42 -44 0 -52 4 -71 30
-28 39 -44 38 -38 -1 4 -27 1 -32 -24 -41 -15 -5 -28 -14 -28 -18 0 -5 -7 -16
-16 -25 -12 -12 -19 -13 -30 -4 -8 6 -14 18 -14 26 0 22 -30 -4 -30 -26 0 -9
-7 -25 -15 -35 -8 -11 -15 -29 -15 -40 1 -18 4 -16 29 13 30 37 51 35 51 -5 0
-15 -6 -24 -16 -24 -13 0 -15 -7 -11 -28 6 -32 0 -46 -26 -55 -15 -6 -17 -19
-16 -89 0 -46 -2 -106 -6 -133 -8 -57 -37 -100 -61 -91 -13 5 -14 16 -9 61 7
57 -6 93 -43 121 -12 9 -14 27 -10 85 6 73 6 74 -9 39 -10 -23 -17 -76 -19
-149 -2 -63 -8 -119 -13 -124 -5 -5 -22 -2 -42 9 -36 18 -129 21 -158 5 -12
-7 -7 -11 20 -16 19 -3 41 -5 48 -3 21 5 34 -44 20 -78 -11 -28 -11 -28 -19
-8 -12 31 -28 37 -35 14 -5 -14 -15 -20 -38 -20 -22 0 -28 -3 -18 -9 7 -5 26
-5 42 -1 21 6 29 4 33 -7 9 -21 8 -23 -12 -23 -12 0 -22 -14 -32 -42 -8 -23
-20 -43 -26 -45 -5 -2 -21 16 -34 39 -22 40 -24 41 -33 20 -8 -17 -7 -25 5
-35 19 -14 34 -87 18 -87 -5 0 -13 0 -17 0 -8 0 -10 7 -12 48 -1 30 -21 18
-21 -13 0 -25 -16 -42 -28 -30 -4 3 -7 33 -7 65 0 82 -11 61 -18 -32 -4 -63
-3 -78 8 -78 8 0 18 -15 23 -32 7 -27 5 -37 -12 -55 l-21 -23 -17 21 c-10 12
-18 27 -18 35 0 8 -4 14 -10 14 -5 0 -10 -12 -10 -26 0 -17 -6 -28 -20 -31
-18 -5 -20 -14 -20 -93 0 -58 -5 -97 -15 -116 -8 -16 -15 -37 -15 -47 0 -23
-40 -77 -56 -77 -15 0 -20 -17 -29 -91 -7 -67 1 -91 58 -161 24 -29 52 -76 63
-103 l19 -50 3 36 c3 36 3 36 25 18 12 -10 35 -28 50 -41 25 -21 27 -26 18
-51 -14 -36 -14 -144 -1 -152 6 -3 10 -14 10 -25 0 -20 85 -120 103 -120 6 0
19 -7 29 -17 10 -9 21 -14 24 -10 3 3 14 47 24 99 25 130 56 205 99 245 20 18
41 31 48 29 6 -3 16 8 22 25 5 16 25 44 44 62 19 17 37 40 40 50 4 9 13 17 22
17 8 0 15 4 15 9 0 5 9 13 20 16 11 4 32 17 48 29 15 13 39 26 53 29 15 4 46
23 70 43 26 22 50 34 61 31 11 -3 18 0 18 9 0 8 6 15 13 16 6 0 17 2 22 3 64
14 78 21 93 44 24 37 28 39 83 30 55 -9 79 -4 79 16 0 7 7 18 15 25 12 10 15
10 15 -4 0 -9 5 -16 10 -16 19 0 10 -29 -15 -48 -27 -21 -32 -32 -14 -32 6 0
17 -6 24 -14 12 -11 12 -20 2 -47 -7 -19 -15 -36 -18 -39 -3 -3 -12 -22 -18
-42 -8 -23 -19 -38 -28 -38 -13 0 -15 -9 -10 -57 22 -200 22 -183 -2 -183 -18
0 -21 6 -21 40 0 33 -3 40 -20 40 -17 0 -20 7 -20 40 0 36 3 40 25 40 16 0 25
6 25 15 0 18 -7 18 -49 4 -17 -6 -31 -17 -31 -24 0 -7 -6 -24 -13 -37 -7 -14
-11 -46 -9 -71 3 -37 8 -47 22 -47 12 0 20 -10 24 -35 8 -42 23 -53 41 -29 13
18 14 18 15 2 0 -10 4 -18 9 -18 5 0 14 -14 20 -32 11 -30 12 -31 31 -13 20
18 20 17 20 -8 0 -15 5 -27 12 -27 9 0 9 -3 0 -12 -17 -17 -16 -101 1 -96 6 3
13 21 15 41 3 31 7 37 26 37 14 0 28 -10 36 -25 7 -14 19 -25 25 -25 16 0 33
-60 27 -98 -3 -24 -11 -34 -30 -39 -30 -7 -44 -17 -80 -55 -15 -16 -31 -28
-37 -28 -21 0 -180 -85 -177 -95 2 -6 -7 -12 -20 -15 -14 -4 -24 -15 -26 -27
-2 -14 -8 -20 -17 -16 -10 3 -18 -5 -25 -22 -6 -15 -19 -29 -29 -32 -19 -5
-29 -22 -52 -83 -7 -19 -18 -42 -24 -50 -7 -8 -20 -36 -30 -62 -13 -36 -21
-45 -34 -40 -20 7 -41 28 -41 39 0 5 -20 38 -45 73 -24 35 -52 84 -61 109 -18
48 -41 74 -56 65 -5 -3 -8 -38 -7 -77 l3 -72 34 -3 c19 -1 41 -10 48 -20 17
-21 48 -121 40 -129 -11 -12 -38 8 -49 37 -13 34 -15 35 -42 14 -19 -14 -19
-16 -2 -28 21 -16 21 -25 0 -48 -9 -10 -11 -18 -5 -18 6 0 13 6 15 13 4 9 8 9
15 -2 5 -7 15 -11 21 -7 6 4 24 0 41 -9 17 -9 35 -13 40 -10 6 3 10 0 10 -8 0
-15 -16 -13 -86 8 -31 10 -64 -11 -64 -39 0 -13 -7 -30 -17 -37 -9 -8 -22 -29
-30 -48 -8 -18 -23 -35 -34 -38 -23 -6 -23 -9 -5 -61 21 -58 59 -111 108 -149
23 -19 52 -49 65 -68 12 -18 32 -36 43 -40 11 -3 20 -14 20 -23 0 -29 24 15
64 118 50 126 98 221 116 230 49 24 93 40 98 36 2 -3 -1 -19 -8 -35 -21 -52
-14 -205 11 -221 5 -3 -5 -22 -22 -43 -16 -20 -29 -42 -28 -49 3 -27 -2 -35
-27 -47 -18 -8 -24 -17 -20 -27 4 -9 2 -22 -4 -29 -6 -7 -9 -21 -9 -31 4 -44
-2 -75 -18 -92 -25 -25 -56 -82 -49 -89 8 -8 -14 -44 -23 -38 -5 3 -11 -2 -15
-10 -3 -8 -11 -15 -18 -15 -16 0 -68 -51 -68 -67 0 -7 -3 -13 -8 -13 -4 0 -13
-14 -21 -31 -12 -29 -11 -33 16 -67 16 -20 45 -45 64 -54 59 -30 147 -68 157
-68 26 0 40 -36 36 -92 -3 -55 -2 -58 22 -64 21 -6 31 -1 50 23 18 23 29 29
49 26 27 -6 35 -33 10 -33 -8 0 -34 -25 -58 -55 -23 -30 -48 -55 -54 -55 -21
0 -15 -29 20 -88 18 -31 39 -77 46 -101 15 -53 49 -107 87 -142 90 -81 134
-146 134 -198 0 -25 5 -41 14 -44 39 -15 54 -67 61 -207 1 -30 9 -68 18 -85 9
-16 17 -38 17 -49 0 -15 3 -16 14 -7 12 10 18 7 33 -16 9 -15 21 -30 25 -33
44 -33 168 -159 168 -171 0 -19 26 -33 53 -30 9 1 32 -6 50 -17 25 -15 46 -19
92 -16 108 6 160 16 187 35 14 10 54 32 89 49 56 27 72 30 156 30 82 0 101 4
165 32 40 17 82 39 93 49 11 9 56 27 100 39 69 18 89 20 140 11 33 -6 71 -9
85 -8 24 2 25 -1 28 -58 2 -54 -1 -66 -32 -115 -19 -30 -42 -71 -51 -90 -9
-19 -33 -53 -54 -75 -88 -91 -105 -194 -50 -300 39 -76 89 -194 89 -211 0 -8
-9 -11 -25 -8 -18 3 -25 0 -25 -11 0 -8 -7 -15 -15 -15 -8 0 -15 -9 -15 -20 0
-11 -4 -20 -10 -20 -9 0 -78 -98 -91 -129 -3 -8 -16 -16 -30 -18 -42 -6 -46
-10 -52 -60 -3 -26 -11 -68 -18 -93 -6 -25 -13 -121 -15 -215 -3 -93 -11 -211
-19 -261 -18 -107 -18 -117 -6 -109 5 3 28 65 51 138 49 153 86 264 100 292
16 34 131 317 152 375 11 30 24 59 29 64 5 6 9 18 9 29 0 29 17 10 24 -27 5
-28 1 -46 -23 -88 -16 -29 -55 -111 -86 -183 -30 -71 -67 -155 -80 -185 -29
-66 -68 -198 -89 -300 -8 -41 -22 -95 -31 -119 -8 -24 -15 -53 -15 -65 0 -11
-12 -64 -26 -116 -23 -87 -30 -119 -54 -250 -11 -61 -34 -141 -50 -169 -6 -13
-13 -52 -13 -87 -1 -35 -5 -64 -9 -64 -5 0 -8 -17 -8 -37 0 -20 -7 -45 -17
-55 -15 -17 -15 -19 0 -36 21 -23 21 -36 3 -51 -13 -11 -32 -76 -27 -95 1 -4
-4 -15 -10 -22 -9 -11 -9 -18 -1 -26 21 -21 11 -66 -24 -105 -6 -6 -11 -38
-10 -70 1 -53 3 -59 34 -80 53 -35 88 -7 117 97 12 44 57 140 66 140 5 0 13
17 19 38 6 23 16 39 25 39 10 0 13 -6 10 -18 -4 -10 -8 -40 -10 -68 -3 -27
-11 -69 -20 -92 -8 -24 -15 -50 -15 -58 0 -8 -6 -22 -14 -30 -12 -15 -31 -151
-21 -151 9 0 31 65 44 125 7 33 19 85 27 115 27 103 41 188 33 201 -12 20 -1
81 21 111 11 15 20 35 20 45 0 15 2 16 10 3 7 -11 10 -6 10 20 0 19 7 46 15
60 8 14 15 36 15 50 0 14 9 52 20 84 11 33 20 72 20 88 0 16 6 41 14 56 7 15
23 70 36 122 25 103 63 253 87 340 8 30 23 88 34 129 10 41 26 97 34 125 9 28
19 92 22 141 l7 90 8 -60 c4 -33 4 -75 1 -92 -3 -18 -1 -33 3 -33 8 0 21 31
74 175 75 206 203 486 268 588 90 140 131 198 205 291 170 212 287 317 441
394 58 30 106 57 106 62 0 4 12 10 28 13 36 8 152 78 152 92 0 6 23 31 50 55
28 25 65 58 82 73 47 43 87 60 121 53 16 -3 49 1 75 10 25 8 60 14 76 12 23
-2 32 2 34 15 2 12 -3 17 -17 17 -12 0 -21 -5 -21 -11 0 -5 -4 -7 -10 -4 -5 3
-10 19 -10 36 0 16 5 29 10 29 6 0 10 7 10 15 0 9 11 20 25 25 14 5 25 16 25
24 0 8 7 22 16 31 10 9 14 26 11 40 -3 19 0 25 14 25 13 0 19 7 19 21 0 16 5
20 28 17 34 -4 87 38 72 57 -14 17 7 33 49 37 46 4 54 28 10 28 -30 0 -31 1
-14 14 10 7 16 20 12 28 -3 9 0 21 6 27 25 25 126 3 128 -29 0 -9 2 -11 5 -3
3 7 1 21 -5 32 -9 17 -7 22 19 34 28 15 48 8 36 -12 -3 -5 11 -5 32 1 20 5 48
11 62 13 14 2 34 7 46 10 13 4 25 0 34 -10 11 -14 10 -17 -10 -22 -20 -5 -22
-10 -16 -50 4 -31 2 -45 -7 -47 -145 -39 -174 -41 -190 -16 -6 11 -17 20 -24
20 -7 0 -12 5 -10 10 1 6 -10 18 -25 27 -23 14 -30 15 -40 5 -11 -11 -10 -16
5 -26 9 -7 17 -18 17 -23 0 -5 8 -35 18 -66 16 -46 16 -57 5 -61 -7 -3 -13
-17 -13 -31 0 -14 -5 -25 -10 -25 -6 0 -9 -13 -8 -29 1 -16 -3 -35 -9 -43 -6
-7 -14 -30 -18 -51 -8 -41 -21 -55 -37 -39 -7 7 -6 17 2 32 18 35 0 43 -53 23
-32 -12 -47 -23 -47 -35 0 -11 -5 -15 -15 -12 -11 5 -15 -1 -15 -20 0 -14 -4
-26 -8 -26 -5 0 -15 -11 -22 -25 -9 -18 -22 -25 -42 -25 -16 0 -46 -11 -68
-25 -22 -14 -49 -25 -60 -25 -11 0 -20 -4 -20 -10 0 -5 -5 -10 -10 -10 -6 0
-20 -9 -32 -20 -12 -11 -30 -20 -40 -20 -10 0 -18 -4 -18 -10 0 -5 -6 -10 -12
-10 -13 0 -68 -35 -183 -114 -31 -21 -63 -50 -72 -63 -8 -13 -30 -30 -48 -39
-18 -8 -45 -33 -60 -54 -14 -21 -43 -54 -63 -74 -60 -58 -72 -72 -72 -84 0 -6
-9 -14 -20 -17 -11 -4 -18 -10 -15 -15 8 -13 -21 -66 -40 -73 -8 -4 -15 -12
-15 -20 0 -7 -15 -42 -32 -77 -49 -94 -60 -114 -75 -128 -7 -7 -13 -20 -13
-28 0 -8 -4 -14 -10 -14 -5 0 -10 -6 -10 -13 0 -7 -21 -52 -46 -101 -25 -48
-41 -85 -35 -81 7 3 59 77 117 163 58 86 137 198 176 247 38 50 82 106 96 125
110 141 327 340 450 410 15 9 46 28 69 43 24 15 49 27 58 27 8 0 15 5 15 11 0
6 7 9 15 5 8 -3 18 1 22 8 14 23 66 52 70 39 3 -8 15 -1 32 16 21 22 35 28 55
24 39 -8 40 -19 6 -53 -30 -30 -39 -50 -20 -50 6 0 10 -9 10 -19 0 -16 18 -31
36 -31 11 0 2 19 -11 22 -9 2 -11 8 -6 16 11 19 41 3 41 -22 0 -27 -18 -46
-42 -46 -15 0 -18 -9 -18 -51 0 -31 4 -48 10 -44 6 4 8 10 6 14 -7 11 12 36
21 27 19 -19 -1 -194 -23 -203 -8 -3 -14 -11 -14 -19 0 -8 -4 -14 -10 -14 -5
0 -10 9 -10 20 0 11 -4 20 -10 20 -13 0 -13 -27 0 -35 12 -7 7 -60 -8 -77 -9
-13 -35 -145 -31 -164 4 -21 -2 -35 -11 -29 -5 3 -10 23 -10 44 0 39 -23 82
-36 68 -5 -5 -8 -62 -7 -128 1 -96 -1 -121 -13 -126 -8 -3 -14 -11 -14 -17 0
-7 -12 -18 -26 -24 -16 -8 -34 -32 -49 -67 -14 -30 -29 -55 -35 -55 -14 0 -13
116 2 140 18 28 3 36 -29 15 -16 -11 -23 -20 -15 -23 35 -11 -26 -72 -74 -72
-26 0 -33 -6 -51 -44 -14 -28 -30 -45 -45 -49 -113 -25 -266 -82 -254 -94 2
-3 13 0 23 5 20 11 165 42 195 42 33 0 15 -22 -47 -56 -69 -37 -125 -89 -156
-144 -13 -23 -31 -40 -43 -42 -16 -2 -20 -9 -18 -26 3 -22 1 -23 -27 -17 -25
5 -34 1 -58 -26 -15 -18 -37 -42 -49 -53 -30 -31 -64 -82 -64 -98 0 -7 -19
-29 -42 -48 -23 -19 -65 -55 -92 -80 -72 -64 -111 -90 -135 -90 -13 0 -19 -5
-15 -14 3 -7 -1 -16 -9 -19 -10 -4 -13 1 -9 19 6 34 -26 32 -64 -3 -27 -26
-36 -39 -68 -98 -6 -11 -14 -22 -17 -25 -7 -5 -66 -113 -101 -184 -11 -21 -42
-60 -68 -86 -42 -42 -51 -58 -65 -115 -8 -36 -15 -99 -16 -138 -1 -61 -2 -67
-10 -42 -12 38 -2 224 16 290 7 28 21 84 31 125 17 73 65 214 85 252 6 11 8
22 5 25 -6 6 -96 -184 -96 -203 0 -8 -10 -24 -21 -35 -12 -12 -27 -33 -35 -47
l-13 -25 -6 26 c-9 34 25 189 66 304 17 48 37 108 43 133 25 90 80 227 134
335 76 153 110 209 357 585 136 206 168 263 163 291 -6 35 -205 -168 -364
-371 -50 -63 -134 -193 -134 -207 0 -3 -6 -14 -14 -22 -28 -33 -132 -246 -172
-353 -9 -24 -20 -52 -25 -63 -21 -50 -79 -206 -99 -270 -13 -38 -29 -85 -36
-103 -8 -18 -14 -41 -14 -52 0 -10 -4 -21 -9 -24 -5 -3 -11 -20 -14 -38 -10
-59 -25 -122 -47 -188 -11 -36 -24 -84 -27 -107 -3 -24 -10 -43 -14 -43 -5 0
-9 -9 -9 -21 0 -11 -5 -29 -10 -40 -6 -10 -12 -36 -14 -56 -2 -21 -9 -51 -14
-68 -6 -16 -22 -84 -37 -150 -15 -66 -31 -129 -35 -140 -5 -11 -12 -36 -15
-55 -4 -19 -13 -55 -20 -80 -7 -25 -23 -92 -36 -150 -13 -58 -28 -114 -35
-125 -20 -33 -45 -115 -59 -195 -20 -110 -30 -149 -54 -212 -12 -31 -30 -98
-40 -150 -11 -51 -26 -109 -34 -128 -8 -19 -17 -68 -21 -109 -6 -69 -23 -128
-27 -91 -3 29 -17 -45 -18 -96 -1 -62 -28 -154 -44 -154 -14 0 -33 -40 -43
-87 -3 -18 -24 -51 -45 -73 -22 -22 -39 -46 -39 -53 0 -8 -4 -7 -10 3 -25 40
-39 -44 -40 -240 0 -91 -3 -175 -6 -187 -11 -40 -24 -14 -24 47 0 32 -4 61 -9
64 -5 4 -9 -89 -10 -222 0 -125 -5 -243 -11 -262 -5 -19 -10 -47 -10 -61 0
-15 -7 -32 -15 -39 -8 -7 -15 -21 -15 -32 0 -11 -6 -32 -14 -46 -44 -86 -49
-113 -61 -348 -1 -29 -6 -57 -9 -63 -5 -7 8 -11 42 -11 27 0 76 -9 110 -20 87
-29 174 -37 193 -18 8 9 31 24 49 33 64 33 260 100 260 88 0 -11 -29 -32 -51
-38 -13 -3 -42 -18 -63 -33 -35 -24 -43 -38 -67 -112 -16 -47 -33 -103 -38
-125 -5 -22 -15 -58 -21 -80 -6 -22 -15 -59 -20 -82 -5 -23 -16 -63 -24 -90
-9 -26 -15 -55 -14 -63 1 -8 0 -30 0 -47 -2 -28 -6 -33 -27 -33 -20 0 -25 -5
-25 -25 0 -27 -31 -48 -38 -27 -2 7 -11 12 -19 12 -8 0 -34 13 -57 28 -22 15
-49 31 -58 35 -10 3 -18 11 -18 16 0 5 -14 12 -31 16 -23 5 -34 3 -44 -11 -8
-11 -26 -18 -46 -19 -28 0 -35 -4 -37 -23 -2 -12 -8 -22 -13 -22 -5 0 -9 -4
-9 -10 0 -5 6 -10 13 -10 6 0 20 -20 30 -45 17 -40 26 -49 48 -47 9 1 69 -75
69 -86 0 -6 18 -25 40 -43 22 -18 45 -48 51 -66 6 -18 14 -33 18 -33 8 0 41
-54 41 -69 0 -6 -7 -11 -15 -11 -9 0 -12 6 -8 17 5 13 2 15 -16 10 -14 -3 -24
0 -27 8 -3 8 -12 11 -20 8 -8 -3 -17 5 -24 21 -5 14 -17 26 -25 26 -9 0 -13
-4 -10 -10 3 -6 -1 -7 -9 -4 -9 3 -16 11 -16 17 0 7 -4 7 -12 -1 -7 -7 -21
-12 -33 -12 -18 0 -20 6 -20 41 0 35 -4 46 -32 68 -18 14 -33 31 -33 38 0 6
-20 28 -45 49 -25 20 -45 41 -45 46 0 5 -25 40 -56 76 -30 37 -63 76 -71 86
-38 47 -67 289 -44 372 24 90 100 144 244 174 31 6 57 15 57 19 0 4 -9 41 -19
82 -11 41 -19 92 -20 114 0 40 -33 120 -45 108 -9 -9 5 -84 21 -116 8 -16 12
-34 10 -40 -2 -7 -21 23 -42 67 -35 74 -37 83 -32 145 3 36 13 91 22 121 8 30
24 91 36 135 11 44 27 98 35 121 15 39 53 194 56 224 1 8 7 20 14 25 13 10 64
175 64 207 0 10 -4 18 -10 18 -5 0 -10 -4 -10 -10 0 -5 -6 -7 -14 -4 -12 4
-13 -1 -6 -31 10 -43 13 -42 -105 -49 -64 -4 -116 -14 -179 -36 -48 -17 -90
-29 -93 -27 -13 13 76 61 172 92 147 49 153 53 65 53 -102 0 -189 -14 -247
-40 -26 -12 -52 -24 -58 -26 -5 -3 3 9 19 26 47 50 200 96 269 80 60 -14 184
-13 202 2 8 7 15 25 15 41 0 26 -4 28 -47 35 -27 3 -98 31 -158 60 -61 30
-118 54 -127 54 -10 0 -25 11 -34 25 -22 34 -39 31 -54 -7 -42 -117 -56 -150
-88 -208 -19 -36 -45 -83 -58 -106 -13 -25 -19 -46 -14 -55 6 -8 0 -23 -16
-42 -24 -29 -45 -68 -69 -134 -11 -29 -10 -31 8 -30 10 1 23 11 28 23 7 19 13
22 49 17 35 -5 45 -2 68 20 74 71 218 104 322 73 82 -24 85 -27 67 -67 -8 -19
-17 -40 -19 -48 -3 -10 -31 -13 -116 -15 l-112 -1 -69 -75 c-39 -41 -70 -81
-71 -88 0 -19 28 -45 41 -37 5 4 54 11 107 15 74 7 104 5 129 -5 36 -15 41
-26 19 -44 -18 -15 -128 -15 -176 -1 -19 5 -49 10 -66 10 -17 0 -37 7 -45 16
-10 12 -23 14 -58 9 -25 -4 -52 -12 -58 -17 -18 -15 -16 -55 7 -121 11 -31 20
-81 20 -111 0 -51 -3 -57 -33 -80 -19 -15 -41 -26 -49 -26 -9 0 -47 16 -84 35
-38 19 -78 35 -89 35 -11 0 -41 7 -66 16 -49 18 -109 14 -127 -9 -5 -6 -12
-24 -16 -39 -5 -21 -3 -28 8 -28 8 0 28 -13 43 -30 26 -28 50 -39 193 -92 61
-23 66 -26 58 -34 -3 -3 -45 6 -93 20 -88 26 -244 44 -265 31 -8 -5 -8 -11 1
-21 6 -8 8 -14 3 -15 -5 0 2 -5 15 -10 33 -13 25 -17 -44 -23 -107 -8 -204
-23 -355 -57 -67 -15 -73 -29 -13 -29 29 0 54 -4 58 -9 3 -5 19 -13 36 -16 17
-4 64 -22 106 -41 41 -19 80 -34 88 -34 7 0 57 22 111 49 116 57 197 78 240
63 26 -9 27 -10 9 -16 -125 -43 -185 -130 -219 -321 -14 -72 -6 -292 11 -318
4 -7 13 -37 20 -67 6 -30 16 -73 22 -94 11 -44 4 -67 -13 -45 -14 18 -60 39
-89 40 -16 1 -17 3 -5 6 22 6 31 32 17 49 -16 19 -33 8 -58 -38 -19 -37 -20
-43 -6 -50 24 -14 19 -40 -8 -36 -13 1 -32 -5 -41 -15 -21 -21 -35 -22 -42 -2
-4 11 -13 13 -28 9 -11 -4 -18 -3 -14 1 5 5 -6 17 -23 27 -23 14 -34 16 -39 8
-10 -16 -66 13 -101 52 -16 17 -32 26 -41 23 -8 -3 -21 1 -28 10 -7 8 -20 15
-29 15 -9 0 -22 5 -29 12 -9 9 -12 8 -12 -6 0 -15 -3 -16 -15 -6 -8 7 -15 19
-15 27 0 10 -6 12 -21 8 -15 -5 -28 1 -49 23 -15 17 -34 30 -42 29 -42 -1 -56
7 -88 56 -20 28 -42 68 -50 87 -8 19 -16 37 -19 40 -6 5 -20 39 -50 120 -9 25
-23 56 -30 69 -22 39 -27 181 -8 217 26 50 40 56 129 56 46 0 86 2 91 5 9 6
-27 59 -68 97 -43 41 -109 69 -146 61 -40 -9 -86 -50 -106 -94 -23 -50 -22
-224 1 -310 9 -35 15 -69 12 -77 -3 -7 0 -26 6 -42 10 -25 8 -34 -12 -63 -14
-19 -28 -36 -32 -37 -15 -7 -8 -19 19 -31 15 -7 29 -8 32 -3 9 14 48 -4 63
-28 7 -11 18 -20 24 -20 7 0 14 -9 17 -20 5 -20 -7 -28 -18 -11 -3 5 -20 12
-38 16 -17 4 -54 15 -82 25 -27 10 -86 28 -130 40 -213 58 -434 134 -600 205
-55 24 -144 46 -171 43 -17 -2 -28 -10 -30 -21 -3 -24 25 -107 43 -128 8 -9
15 -28 17 -42 1 -14 17 -37 34 -52 18 -15 32 -31 32 -37 0 -10 27 -45 83 -108
40 -46 239 -204 297 -236 19 -10 42 -26 52 -34 9 -8 38 -26 65 -40 26 -13 62
-34 78 -46 17 -11 56 -33 87 -47 31 -15 63 -35 70 -45 7 -9 27 -24 43 -32 l30
-14 -28 -4 c-15 -2 -33 3 -41 10 -7 8 -33 20 -57 28 -23 8 -54 25 -67 37 -14
13 -32 23 -41 23 -9 0 -34 11 -56 25 -22 14 -58 34 -80 45 -22 12 -58 32 -80
46 -22 13 -47 27 -55 31 -8 4 -21 15 -28 25 -7 10 -21 18 -30 18 -10 0 -25 9
-35 20 -9 11 -25 20 -35 20 -11 0 -27 9 -37 20 -10 11 -24 20 -31 20 -7 0 -33
20 -58 45 -26 25 -49 45 -54 45 -23 1 -141 139 -142 167 0 5 -12 26 -25 48
l-24 39 -10 -24 c-8 -22 -10 -19 -10 22 -1 26 4 50 9 53 5 3 10 14 10 23 0 10
9 35 20 57 11 21 18 41 15 43 -8 8 -57 -29 -119 -90 -34 -33 -78 -71 -99 -84
-21 -14 -56 -43 -77 -64 -22 -22 -46 -40 -54 -40 -26 0 -66 -41 -66 -68 0 -40
15 -57 47 -54 25 3 28 -1 30 -27 2 -35 -8 -45 -62 -60 -22 -6 -48 -22 -58 -36
-17 -24 -11 -35 8 -16 6 5 33 12 62 16 l52 7 -15 -32 c-9 -17 -22 -34 -30 -37
-8 -3 -14 -11 -14 -17 0 -14 -41 -36 -66 -36 -8 0 -38 -7 -66 -16 -44 -15 -56
-25 -101 -91 -29 -41 -55 -84 -58 -96 -5 -21 -2 -22 50 -25 31 -1 70 -7 86
-12 17 -5 49 -14 72 -20 40 -10 41 -11 30 -40 -12 -33 -11 -35 21 -44 16 -5
22 -3 22 7 0 8 8 25 18 38 l19 22 184 -22 c101 -12 252 -34 334 -48 292 -49
280 -46 270 -64 -4 -5 8 -6 27 -1 58 13 101 6 175 -26 47 -21 87 -32 118 -32
25 0 76 -4 113 -9 37 -5 126 -17 197 -26 353 -43 612 -101 825 -185 52 -20
136 -51 185 -69 50 -18 122 -44 160 -58 173 -62 239 -91 496 -216 123 -60 377
-228 459 -302 14 -12 39 -30 55 -38 17 -8 41 -25 55 -37 14 -12 41 -34 60 -49
19 -14 79 -70 133 -124 63 -64 102 -95 110 -90 9 6 8 8 -3 11 -16 3 -50 75
-50 107 0 14 3 16 8 7 7 -9 15 -10 35 -3 15 6 34 8 42 5 9 -4 24 1 35 11 11
10 26 15 35 12 10 -4 15 -1 15 11 0 11 3 13 8 6 4 -6 17 -14 28 -18 42 -13
288 -168 319 -200 6 -6 37 -31 69 -56 33 -25 70 -54 82 -65 45 -42 101 -82
157 -114 31 -18 57 -36 57 -39 0 -9 73 -32 80 -26 2 3 0 8 -6 12 -5 4 -21 25
-34 47 -13 22 -25 42 -27 44 -1 2 -15 4 -30 5 -16 1 -29 7 -29 14 -1 6 -3 14
-4 17 -1 3 -3 11 -4 18 0 6 -8 12 -16 12 -8 0 -25 10 -39 23 -13 12 -30 22
-37 22 -8 0 -14 5 -14 10 0 14 11 13 51 -4 19 -8 36 -14 39 -14 3 -1 17 -5 31
-10 14 -6 45 -16 68 -23 24 -7 45 -19 48 -26 3 -7 9 -10 15 -7 11 7 68 -15 68
-27 0 -5 9 -9 20 -9 11 0 20 -7 20 -15 0 -8 9 -15 20 -15 11 0 20 -4 20 -10 0
-5 4 -10 9 -10 6 0 30 -21 55 -47 24 -26 48 -45 51 -41 4 4 -3 15 -14 25 -20
16 -20 18 -4 24 20 7 73 -19 73 -37 0 -16 51 -48 72 -47 10 1 30 -14 44 -33
15 -19 35 -34 45 -34 10 0 23 -9 29 -21 13 -23 36 -20 32 4 -1 8 2 18 8 22 5
3 10 -1 10 -9 0 -9 6 -16 14 -16 28 0 86 -42 86 -61 0 -11 8 -23 18 -26 9 -4
27 -17 40 -31 19 -20 31 -23 70 -21 26 2 61 0 77 -4 17 -4 45 -3 62 2 21 6 35
6 39 0 8 -14 67 0 77 18 11 18 87 15 135 -4 47 -19 263 -143 288 -165 11 -10
25 -18 31 -18 16 0 123 -118 172 -190 25 -36 53 -73 63 -83 23 -22 48 -15 48
13 0 22 20 26 38 8 9 -9 12 -8 12 5 0 9 4 17 10 17 16 0 132 -61 190 -101 73
-49 155 -93 207 -109 32 -10 45 -20 52 -42 8 -24 14 -27 27 -20 20 11 108 -29
134 -60 8 -10 31 -20 50 -23 19 -2 36 -9 38 -15 3 -7 515 -10 1648 -10 l1644
0 0 8000 0 8000 -1584 0 -1584 0 -7 -50 c-4 -27 -4 -53 -1 -59 3 -5 -1 -17
-11 -26 -13 -13 -13 -19 -4 -25 10 -6 11 -12 1 -30 -8 -14 -10 -41 -5 -75 4
-38 2 -56 -7 -66 -15 -16 -18 -69 -4 -69 6 0 3 -6 -6 -12 -22 -18 -30 -68 -11
-68 8 0 11 -5 8 -10 -4 -6 -10 -8 -14 -5 -5 2 -8 -23 -8 -58 0 -34 -3 -75 -7
-92 -3 -16 -7 -51 -8 -77 -2 -27 -6 -48 -10 -48 -5 0 -8 -7 -8 -15 0 -8 -5
-15 -11 -15 -6 0 -7 -5 -2 -12 4 -7 6 -23 4 -35 -2 -16 3 -23 16 -24 16 0 16
-1 -2 -9 l-20 -9 20 -1 c19 -1 19 -1 3 -14 -10 -7 -18 -25 -18 -40 0 -15 -5
-36 -10 -46 -6 -11 -11 -41 -12 -67 -1 -27 -4 -52 -7 -58 -7 -12 -9 -35 -15
-173 -3 -71 -9 -110 -20 -127 -9 -14 -16 -43 -15 -67 2 -46 -15 -193 -25 -218
-3 -8 -8 -40 -11 -70 -5 -53 -8 -68 -19 -135 -3 -16 -8 -59 -11 -95 -4 -36
-11 -78 -16 -94 -6 -20 -5 -34 4 -44 10 -13 9 -14 -2 -8 -10 7 -12 4 -7 -12 4
-12 3 -29 -2 -39 -6 -10 -13 -53 -16 -95 -3 -42 -11 -89 -16 -104 -6 -15 -13
-69 -15 -120 -2 -51 -6 -97 -9 -103 -3 -5 -3 -16 0 -24 3 -9 -2 -26 -10 -40
-9 -13 -14 -31 -11 -40 4 -8 1 -18 -6 -22 -9 -6 -10 7 -5 56 4 35 9 87 11 114
4 52 13 120 41 310 8 61 17 128 19 150 6 64 16 176 21 235 7 83 11 114 17 130
3 8 8 38 12 65 37 307 46 389 50 445 3 36 12 108 20 160 21 128 23 143 29 235
7 102 24 262 36 345 9 58 43 329 57 453 5 47 5 47 -25 47 -17 0 -33 -6 -35
-12 -4 -10 -7 -10 -15 0 -12 17 -213 15 -224 -2 -6 -8 -8 -7 -8 2 0 8 -24 12
-84 12 -58 0 -86 -4 -89 -12 -3 -10 -9 -10 -26 0 -28 16 -29 16 -34 -10 l-4
-23 -2 22 -1 23 -925 0 -925 0 -2 -22z m1812 2 c0 -5 -4 -10 -10 -10 -5 0 -10
5 -10 10 0 6 5 10 10 10 6 0 10 -4 10 -10z m-200 -15 c7 -8 9 -28 6 -47 -3
-18 -3 -26 1 -18 3 8 12 21 20 28 11 11 13 11 13 -2 0 -8 -4 -18 -10 -21 -5
-3 -10 -14 -10 -23 0 -11 -8 -18 -20 -19 -16 -1 -20 4 -20 27 0 22 -4 28 -15
24 -8 -4 -15 -1 -15 5 0 6 7 11 16 11 12 0 15 6 10 25 -7 28 5 33 24 10z m110
-41 c0 -2 -7 -4 -15 -4 -8 0 -15 4 -15 10 0 5 7 7 15 4 8 -4 15 -8 15 -10z
m158 3 c9 3 14 3 11 -1 -4 -4 -19 -9 -34 -12 -25 -4 -27 -3 -14 12 7 9 15 12
17 6 2 -6 11 -8 20 -5z m-66 -32 c-2 -19 -8 -35 -12 -35 -4 0 -10 16 -12 35
-3 27 0 35 12 35 12 0 15 -8 12 -35z m-35 -7 c-3 -8 -6 -5 -6 6 -1 11 2 17 5
13 3 -3 4 -12 1 -19z m473 -30 c0 -17 -20 -17 -29 1 -16 29 -14 33 9 19 11 -7
20 -16 20 -20z m70 18 c0 -8 -4 -18 -10 -21 -5 -3 -10 3 -10 14 0 12 5 21 10
21 6 0 10 -6 10 -14z m-228 -18 c-9 -9 -15 -9 -24 0 -9 9 -7 12 12 12 19 0 21
-3 12 -12z m718 -8 c0 -5 -7 -10 -15 -10 -8 0 -15 5 -15 10 0 6 7 10 15 10 8
0 15 -4 15 -10z m-1204 -14 c17 -18 18 -43 2 -49 -10 -4 -9 -8 2 -16 12 -9 11
-11 -7 -11 -21 0 -23 5 -23 45 0 48 4 53 26 31z m174 0 c0 -8 7 -17 16 -20 19
-7 14 -28 -8 -32 -11 -1 -17 8 -20 32 -2 19 0 34 4 34 4 0 8 -6 8 -14z m538
-41 c-1 -22 -6 -35 -15 -35 -7 0 -13 -8 -14 -17 0 -11 -3 -13 -6 -6 -2 7 3 23
11 35 9 12 16 30 16 40 0 10 2 18 5 18 2 0 4 -16 3 -35z m207 15 c3 -5 -1 -10
-9 -10 -8 0 -18 5 -21 10 -3 6 1 10 9 10 8 0 18 -4 21 -10z m-795 -55 c0 -1
-17 -2 -37 -2 -21 0 -30 2 -20 4 9 2 17 14 17 25 0 21 0 21 20 -2 11 -13 20
-24 20 -25z m1005 25 c8 -13 -5 -13 -25 0 -13 8 -13 10 2 10 9 0 20 -4 23 -10z
m-862 -13 c7 -17 -19 -51 -32 -42 -6 3 -8 12 -4 18 4 7 8 15 9 20 3 15 4 17
13 17 5 0 11 -6 14 -13z m-108 -27 c7 -24 -2 -60 -16 -60 -6 0 -6 8 1 20 8 14
8 26 0 40 -7 12 -7 20 -1 20 5 0 13 -9 16 -20z m-160 0 c4 -6 11 -8 16 -5 5 4
9 1 9 -4 0 -6 0 -14 0 -18 0 -5 -6 -8 -12 -8 -8 0 -14 -14 -14 -35 -1 -19 -7
-60 -15 -90 -7 -30 -13 -92 -14 -137 -1 -51 -6 -87 -14 -97 -9 -11 -10 -16 -2
-16 19 0 12 -17 -9 -23 -14 -4 -20 -13 -20 -34 0 -21 3 -24 9 -13 6 8 7 18 5
22 -6 10 -1 10 20 2 12 -5 10 -10 -10 -29 -15 -14 -24 -32 -22 -42 2 -10 -3
-23 -11 -30 -14 -10 -12 -15 12 -38 14 -15 24 -32 21 -37 -4 -6 -9 -6 -14 2
-5 8 -9 4 -13 -10 -3 -12 -11 -20 -19 -18 -9 3 -12 21 -10 61 3 41 0 57 -9 57
-8 0 -7 6 4 18 24 26 32 77 17 111 -10 26 -9 33 7 50 15 16 19 35 19 95 -1 44
3 74 9 73 6 -1 11 16 11 38 3 58 14 146 20 156 7 12 21 11 29 -1z m335 1 c0
-12 -28 -22 -34 -12 -3 5 -3 11 1 15 9 9 33 7 33 -3z m345 -41 c-3 -5 -10 -10
-16 -10 -5 0 -9 5 -9 10 0 6 7 10 16 10 8 0 12 -4 9 -10z m-121 -9 c3 -5 -3
-11 -15 -14 -16 -4 -18 -3 -8 9 13 16 16 17 23 5z m431 -1 c3 -5 1 -10 -4 -10
-6 0 -11 5 -11 10 0 6 2 10 4 10 3 0 8 -4 11 -10z m105 -14 c0 -7 -9 -16 -20
-19 -23 -6 -25 -2 -7 18 16 18 27 19 27 1z m-893 -2 c-3 -3 -12 -4 -19 -1 -8
3 -5 6 6 6 11 1 17 -2 13 -5z m-106 -41 c-12 -20 -14 -14 -5 12 4 9 9 14 11
11 3 -2 0 -13 -6 -23z m87 -20 c-15 -18 -21 -9 -13 18 6 16 9 18 16 8 4 -8 3
-19 -3 -26z m239 -10 c-3 -10 -5 -4 -5 12 0 17 2 24 5 18 2 -7 2 -21 0 -30z
m243 7 c0 -5 -8 -10 -17 -10 -15 0 -16 2 -3 10 19 12 20 12 20 0z m-497 -28
c3 -4 -10 -8 -28 -9 -19 -2 -37 2 -40 7 -3 6 1 10 9 10 9 0 16 5 16 10 0 11
34 -3 43 -18z m487 -12 c0 -5 7 -10 15 -10 8 0 15 -4 15 -9 0 -5 -7 -11 -15
-15 -8 -3 -15 -1 -15 3 0 5 -8 7 -19 4 -23 -6 -39 16 -20 28 19 12 39 11 39
-1z m-610 -30 c0 -5 -9 -6 -20 -3 -11 3 -20 9 -20 13 0 5 9 6 20 3 11 -3 20
-9 20 -13z m121 -3 c-6 -8 -8 -17 -4 -20 3 -4 0 -13 -6 -21 -8 -10 -9 -16 -1
-21 15 -9 12 -22 -6 -29 -11 -4 -14 -1 -12 12 1 9 -1 22 -5 29 -4 6 -3 14 3
18 5 3 10 15 10 26 0 11 7 19 16 19 13 0 14 -3 5 -13z m109 -7 c0 -5 -9 -10
-21 -10 -11 0 -17 5 -14 10 3 6 13 10 21 10 8 0 14 -4 14 -10z m80 -5 c0 -2
-7 -5 -15 -9 -9 -3 -15 0 -15 9 0 9 6 12 15 9 8 -4 15 -7 15 -9z m-149 -38
c-13 -13 -31 1 -31 23 0 19 1 19 20 3 12 -10 16 -21 11 -26z m-141 23 c0 -5
-4 -10 -10 -10 -5 0 -10 5 -10 10 0 6 5 10 10 10 6 0 10 -4 10 -10z m619 3 c0
-5 -4 -17 -9 -28 -8 -18 -9 -17 -9 8 -1 15 4 27 9 27 6 0 10 -3 9 -7z m-169
-48 c11 -13 10 -14 -4 -9 -9 3 -16 10 -16 15 0 13 6 11 20 -6z m-443 -21 c-3
-3 -12 -4 -19 -1 -8 3 -5 6 6 6 11 1 17 -2 13 -5z m-170 -46 c-3 -8 -6 -5 -6
6 -1 11 2 17 5 13 3 -3 4 -12 1 -19z m245 -3 c0 -5 -5 -11 -11 -13 -6 -2 -11
4 -11 13 0 9 5 15 11 13 6 -2 11 -8 11 -13z m873 -6 c10 -14 1 -21 -19 -13 -9
3 -13 10 -10 15 7 12 21 11 29 -2z m-885 -30 c0 -6 -9 -9 -20 -6 -14 4 -20 0
-20 -12 0 -14 7 -16 35 -13 38 5 50 -16 15 -25 -21 -6 -28 -23 -9 -23 5 0 7
-5 3 -12 -6 -9 -9 -9 -12 0 -2 7 -8 12 -13 12 -6 0 -8 -4 -4 -9 3 -5 0 -13 -6
-17 -9 -5 -10 1 -5 20 4 17 1 35 -10 51 -8 13 -13 29 -9 35 8 14 55 13 55 -1z
m357 -21 c-3 -8 -6 -5 -6 6 -1 11 2 17 5 13 3 -3 4 -12 1 -19z m-462 -28 c19
-8 19 -9 -2 -9 -12 -1 -25 4 -28 9 -7 12 2 12 30 0z m371 -15 c-10 -8 -23 -12
-29 -8 -11 7 12 23 33 23 12 -1 11 -4 -4 -15z m-79 -11 c-3 -3 -12 -4 -19 -1
-8 3 -5 6 6 6 11 1 17 -2 13 -5z m703 -13 c0 -6 -4 -13 -10 -16 -5 -3 -10 1
-10 9 0 9 5 16 10 16 6 0 10 -4 10 -9z m-408 -23 c-7 -7 -12 -8 -12 -2 0 14
12 26 19 19 2 -3 -1 -11 -7 -17z m-202 -14 c0 -8 -5 -12 -10 -9 -6 4 -8 11 -5
16 9 14 15 11 15 -7z m-294 -21 c-10 -10 -19 5 -10 18 6 11 8 11 12 0 2 -7 1
-15 -2 -18z m864 -3 c0 -5 -4 -10 -10 -10 -5 0 -10 5 -10 10 0 6 5 10 10 10 6
0 10 -4 10 -10z m-993 -16 c-3 -3 -12 -4 -19 -1 -8 3 -5 6 6 6 11 1 17 -2 13
-5z m138 -24 c0 -7 -6 -15 -12 -17 -8 -3 -13 4 -13 17 0 13 5 20 13 18 6 -3
12 -11 12 -18z m505 -16 c0 -31 -2 -34 -15 -20 -8 8 -15 24 -15 35 0 12 6 21
15 21 11 0 15 -11 15 -36z m-3020 -11 c0 -14 -38 -52 -53 -53 -9 0 2 50 15 67
12 15 38 6 38 -14z m2270 17 c0 -5 -5 -10 -11 -10 -5 0 -7 5 -4 10 3 6 8 10
11 10 2 0 4 -4 4 -10z m235 -40 c3 -5 2 -10 -4 -10 -5 0 -13 5 -16 10 -3 6 -2
10 4 10 5 0 13 -4 16 -10z m-2835 -31 c0 -5 -4 -9 -10 -9 -5 0 -10 7 -10 16 0
8 5 12 10 9 6 -3 10 -10 10 -16z m2822 -29 c-24 -23 -32 -25 -32 -8 0 21 33
49 44 38 7 -7 3 -16 -12 -30z m225 -2 c-3 -8 -6 -5 -6 6 -1 11 2 17 5 13 3 -3
4 -12 1 -19z m-2144 -22 c6 -16 -11 -36 -30 -36 -16 0 -17 22 -1 38 16 16 25
15 31 -2z m1707 -6 c0 -5 -4 -10 -10 -10 -5 0 -10 5 -10 10 0 6 5 10 10 10 6
0 10 -4 10 -10z m175 -30 c3 -5 -1 -10 -9 -10 -9 0 -16 5 -16 10 0 6 4 10 9
10 6 0 13 -4 16 -10z m536 -27 c-8 -15 -10 -15 -11 -2 0 17 10 32 18 25 2 -3
-1 -13 -7 -23z m-716 -23 c-11 -17 -23 -1 -18 21 5 19 7 19 15 5 5 -9 6 -21 3
-26z m965 16 c0 -14 -4 -28 -10 -31 -6 -4 -10 7 -10 24 0 17 5 31 10 31 6 0
10 -11 10 -24z m-244 -42 c-4 -9 -9 -15 -11 -12 -3 3 -3 13 1 22 4 9 9 15 11
12 3 -3 3 -13 -1 -22z m-4222 -20 c9 -22 8 -24 -9 -18 -8 4 -15 12 -15 20 0
19 16 18 24 -2z m4379 -1 c-7 -2 -19 -2 -25 0 -7 3 -2 5 12 5 14 0 19 -2 13
-5z m-2323 -33 c0 -15 -5 -12 -26 11 -19 22 -19 22 4 10 12 -6 22 -16 22 -21z
m1447 -52 c-2 -45 -14 -53 -32 -23 -7 13 -7 19 3 22 6 3 10 9 6 14 -6 11 3 29
16 29 4 0 8 -19 7 -42z m-3639 -3 c16 -35 15 -42 -8 -75 -11 -16 -23 -41 -26
-57 -3 -16 -14 -40 -25 -53 l-19 -25 -1 33 c-1 17 -2 50 -3 72 0 24 -7 45 -16
50 -11 7 -12 15 -4 37 8 23 15 27 37 25 15 -2 27 1 27 7 0 21 27 11 38 -14z
m4338 -2 c-10 -10 -19 5 -10 18 6 11 8 11 12 0 2 -7 1 -15 -2 -18z m-492 2 c3
-8 1 -15 -4 -15 -6 0 -10 7 -10 15 0 8 2 15 4 15 2 0 6 -7 10 -15z m-119 -14
c3 -5 1 -12 -4 -15 -5 -4 -12 -2 -16 4 -4 6 -11 7 -17 4 -7 -4 -8 -2 -4 4 9
14 33 16 41 3z m-4075 -21 c0 -5 -7 -10 -15 -10 -8 0 -15 5 -15 10 0 6 7 10
15 10 8 0 15 -4 15 -10z m96 -14 c20 -21 18 -26 -13 -26 -33 0 -47 9 -56 34
-7 16 -4 18 23 12 17 -3 38 -12 46 -20z m4584 4 c0 -5 -2 -10 -4 -10 -3 0 -8
5 -11 10 -3 6 -1 10 4 10 6 0 11 -4 11 -10z m-710 -19 c0 -5 -7 -14 -15 -21
-16 -14 -18 -10 -9 14 6 17 24 22 24 7z m-3993 -73 c17 -19 14 -59 -6 -66 -10
-3 -12 1 -8 18 7 27 -8 60 -28 60 -7 0 -16 -13 -20 -30 -7 -33 -19 -45 -36
-34 -8 4 -8 9 0 17 6 6 11 19 11 29 0 10 14 24 30 33 17 9 31 21 31 28 1 6 4
1 6 -13 3 -14 12 -33 20 -42z m173 41 c0 -23 -56 -109 -70 -109 -12 0 -13 13
-2 26 5 5 15 25 22 44 23 60 50 81 50 39z m80 -20 c0 -9 -9 -24 -21 -35 l-21
-19 7 40 c4 22 10 44 13 49 6 10 22 -14 22 -35z m3887 15 c-3 -3 -12 -4 -19
-1 -8 3 -5 6 6 6 11 1 17 -2 13 -5z m-152 -52 c0 -45 -38 -71 -48 -33 -3 14
-1 18 9 14 10 -3 14 3 14 19 0 26 9 42 19 32 3 -3 6 -18 6 -32z m686 -44 c-3
-21 -6 -26 -9 -15 -3 17 3 47 11 47 2 0 1 -15 -2 -32z m-703 -78 c1 -30 -2
-40 -13 -40 -18 0 -21 50 -3 68 7 7 13 12 13 12 1 0 2 -18 3 -40z m-4213 -114
l4 -76 -34 0 c-40 0 -65 -22 -58 -50 3 -11 0 -20 -6 -20 -6 0 -11 4 -11 9 0 5
-7 17 -16 26 -15 15 -17 15 -28 -2 -7 -10 -13 -29 -14 -42 -1 -29 -9 -38 -23
-24 -7 7 -7 22 -1 47 9 31 8 39 -7 54 -20 19 -41 55 -41 71 0 24 28 9 41 -21
7 -18 13 -34 15 -36 1 -2 19 7 39 18 24 13 47 19 61 16 27 -7 44 17 44 63 0
16 3 37 6 46 13 32 26 -3 29 -79z m4210 -14 c-13 -29 -13 -56 -1 -71 8 -11 8
-15 -1 -18 -6 -2 -17 -38 -24 -79 -11 -68 -17 -82 -31 -69 -3 3 1 40 9 83 7
42 14 104 14 137 1 70 18 103 32 61 5 -15 6 -34 2 -44z m-4581 -173 c-11 -18
-23 -8 -30 25 -9 52 7 67 23 22 7 -21 10 -42 7 -47z m-42 -91 c-7 -7 -12 -8
-12 -2 0 14 12 26 19 19 2 -3 -1 -11 -7 -17z m4580 -35 c-5 -55 -10 -63 -22
-43 -5 9 -5 19 1 27 6 7 8 17 4 23 -8 13 1 40 13 40 5 0 7 -21 4 -47z m-14
-144 c-2 -20 -5 -18 -15 15 -11 36 -11 38 3 24 9 -8 14 -26 12 -39z m-13 -96
c-10 -55 -27 -103 -36 -97 -5 3 -3 17 3 32 6 15 10 40 9 56 -1 24 11 45 27 46
2 0 0 -17 -3 -37z m-4541 -179 c9 -3 16 -14 16 -23 -1 -15 -43 -71 -55 -71 -9
0 -6 35 6 69 12 34 11 33 33 25z m4509 -61 c-3 -18 -9 -33 -14 -33 -11 0 -11
7 -3 49 9 42 23 26 17 -16z m-9 -96 c-7 -18 -24 -23 -24 -8 0 22 13 42 22 33
5 -5 6 -16 2 -25z m-17 -89 c-3 -8 -6 -5 -6 6 -1 11 2 17 5 13 3 -3 4 -12 1
-19z m-26 -219 c-5 -13 -10 -19 -10 -12 -1 15 10 45 15 40 3 -2 0 -15 -5 -28z
m792 -31 c7 -4 7 -11 -1 -21 -7 -8 -12 -28 -11 -43 1 -16 -3 -40 -10 -54 -9
-21 -10 -14 -6 40 2 36 5 76 5 90 1 16 4 20 7 10 3 -8 11 -18 16 -22z m-2139
-14 c4 -12 2 -15 -9 -11 -8 4 -17 2 -20 -3 -4 -6 3 -10 14 -10 49 0 24 -19
-47 -35 -156 -35 -190 -58 -211 -139 -12 -47 -24 -58 -35 -30 -12 30 -6 55 19
82 14 15 25 30 25 33 0 12 61 72 88 87 30 16 115 40 148 41 12 1 25 -6 28 -15z
m1343 -16 c-3 -7 -5 -2 -5 12 0 14 2 19 5 13 2 -7 2 -19 0 -25z m-1254 -14
c18 -9 41 -28 51 -43 l17 -26 -5 27 c-6 25 -5 25 19 15 27 -13 34 -37 10 -37
-8 0 -15 -7 -15 -15 0 -25 -19 -17 -42 20 -13 19 -30 35 -39 35 -9 0 -27 9
-40 20 -20 16 -21 19 -7 20 10 0 32 -7 51 -16z m137 -74 c0 -5 -2 -10 -4 -10
-3 0 -8 5 -11 10 -3 6 -1 10 4 10 6 0 11 -4 11 -10z m1097 -32 c-3 -8 -6 -5
-6 6 -1 11 2 17 5 13 3 -3 4 -12 1 -19z m-1046 -5 c13 -16 12 -17 -3 -4 -10 7
-18 15 -18 17 0 8 8 3 21 -13z m-60 -11 c37 -24 84 -82 67 -82 -7 0 -26 16
-41 35 -15 19 -34 35 -41 35 -8 0 -19 7 -26 15 -18 22 7 20 41 -3z m1880 -88
c-5 -21 -9 -30 -10 -19 -1 24 10 67 15 62 3 -2 0 -22 -5 -43z m-1784 -6 c-3
-7 -5 -2 -5 12 0 14 2 19 5 13 2 -7 2 -19 0 -25z m55 -5 c10 -9 18 -22 18 -30
0 -9 -10 -3 -25 13 -14 15 -25 29 -25 30 0 9 15 3 32 -13z m-328 -29 c5 -11
25 -31 44 -43 30 -20 33 -26 28 -53 -6 -29 -5 -30 24 -24 33 6 37 2 15 -20
-13 -13 -18 -13 -44 1 -38 19 -41 19 -41 -5 0 -18 -3 -19 -21 -10 -16 9 -18
14 -8 26 9 11 7 14 -12 14 -17 0 -20 3 -10 9 16 10 9 37 -25 86 -13 20 -22 40
-19 45 9 14 59 -5 69 -26z m316 -14 c0 -5 -7 -10 -15 -10 -8 0 -15 5 -15 10 0
6 7 10 15 10 8 0 15 -4 15 -10z m80 -71 c0 -6 -4 -7 -10 -4 -5 3 -10 11 -10
16 0 6 5 7 10 4 6 -3 10 -11 10 -16z m1645 -105 c-4 -35 -10 -62 -14 -59 -9 5
-7 51 4 110 12 58 18 24 10 -51z m-1890 26 c3 -5 -1 -10 -9 -10 -8 0 -18 5
-21 10 -3 6 1 10 9 10 8 0 18 -4 21 -10z m250 -20 c-3 -5 -12 -10 -18 -10 -7
0 -6 4 3 10 19 12 23 12 15 0z m-10 -50 c3 -5 1 -10 -4 -10 -6 0 -11 5 -11 10
0 6 2 10 4 10 3 0 8 -4 11 -10z m-147 -97 c23 -85 24 -109 8 -158 -29 -84 -59
-126 -77 -108 -7 7 -5 15 8 24 43 32 56 113 38 237 -10 66 6 69 23 5z m162 12
c0 -14 -4 -25 -10 -25 -11 0 -14 33 -3 43 11 11 13 8 13 -18z m-3 -117 c-3 -7
-5 -2 -5 12 0 14 2 19 5 13 2 -7 2 -19 0 -25z m13 -72 c0 -3 -4 -8 -10 -11 -5
-3 -10 -1 -10 4 0 6 5 11 10 11 6 0 10 -2 10 -4z m-20 -100 c0 -26 -15 -43
-24 -28 -7 12 4 52 15 52 5 0 9 -11 9 -24z m-254 -22 c-3 -9 -6 -20 -6 -25 0
-5 -7 -9 -15 -9 -8 0 -15 -6 -15 -14 0 -8 -10 -18 -22 -22 -13 -4 -28 -14 -35
-23 -11 -14 -12 -14 -12 -1 0 18 33 60 48 60 6 0 7 8 4 17 -5 12 -2 15 9 10
10 -3 19 0 22 9 3 8 10 14 17 14 6 0 8 -7 5 -16z m-119 -114 c0 -32 -14 -40
-23 -15 -4 8 -1 22 6 30 16 20 17 20 17 -15z m-1520 -62 c-2 -13 -4 -3 -4 22
0 25 2 35 4 23 2 -13 2 -33 0 -45z m1751 42 c18 -15 24 -32 28 -77 2 -31 9
-60 16 -64 7 -5 9 -11 5 -16 -4 -4 -17 -1 -29 6 -21 13 -21 12 -15 -43 5 -52
4 -56 -15 -56 -17 0 -18 2 -8 15 9 10 9 15 1 15 -6 0 -11 17 -11 40 0 22 5 40
10 40 17 0 11 21 -11 39 -18 14 -19 23 -13 69 3 28 9 52 13 52 3 -1 16 -9 29
-20z m-2006 -187 c18 -10 35 -22 37 -26 1 -4 33 -5 70 -1 65 6 68 5 85 -21 13
-19 14 -30 6 -39 -5 -8 -8 -20 -4 -29 3 -8 1 -18 -5 -22 -7 -4 -11 13 -11 49
l0 56 -40 0 c-45 0 -49 -5 -20 -28 15 -12 23 -34 27 -74 3 -32 11 -58 16 -58
6 0 -7 -18 -28 -40 -28 -28 -34 -40 -22 -40 9 0 21 -9 27 -19 17 -32 12 -44
-14 -37 -18 4 -26 1 -29 -11 -3 -10 -5 1 -6 25 -1 35 -4 42 -21 42 -17 0 -20
-7 -22 -42 l-1 -43 -4 43 c-4 40 -6 43 -32 40 -29 -4 -81 -39 -81 -56 0 -6
-15 -41 -34 -78 -33 -63 -34 -68 -19 -91 14 -21 14 -25 0 -41 -10 -11 -15 -40
-16 -86 -1 -38 -5 -74 -10 -80 -5 -6 -11 -20 -13 -31 -1 -11 -5 -22 -8 -25 -3
-3 -10 -14 -16 -25 -6 -11 -19 -20 -29 -20 -10 0 -20 -6 -23 -13 -2 -6 1 -12
7 -12 22 0 10 -20 -36 -65 -37 -35 -55 -45 -80 -45 -23 0 -33 5 -33 15 0 8 -5
15 -11 15 -6 0 -9 6 -6 14 3 8 -16 59 -43 113 -27 54 -51 110 -55 125 -4 15
-15 34 -26 44 -10 9 -19 25 -19 34 0 10 -6 23 -14 29 -8 7 -18 26 -21 42 -4
16 -11 31 -16 34 -5 4 -9 14 -9 24 0 10 -11 28 -25 41 -21 20 -25 31 -22 71 3
55 34 99 70 99 23 0 80 50 78 67 -1 4 13 11 31 14 18 4 53 17 78 30 38 20 42
24 23 27 -45 7 -22 22 23 15 34 -4 48 -2 55 8 7 11 12 12 29 1 17 -10 29 -6
92 35 40 25 81 46 91 45 9 0 17 3 17 9 0 14 25 11 62 -8z m1875 -27 c-4 -9 2
-11 18 -9 16 4 24 -1 28 -16 3 -12 15 -25 28 -29 22 -9 20 -13 -14 -25 -10 -4
-16 -3 -13 2 3 5 -1 12 -10 15 -25 10 -34 7 -34 -9 0 -8 -6 -15 -14 -15 -8 0
-16 -6 -19 -14 -3 -8 -14 -12 -25 -9 -10 2 -26 -3 -35 -11 -21 -22 -44 -20
-57 3 -5 11 -20 21 -32 23 -28 4 -36 44 -14 73 15 20 15 20 16 -2 0 -24 14
-31 25 -13 3 6 17 10 31 10 13 0 24 5 24 10 0 6 6 10 14 10 8 0 16 6 19 13 3
9 9 9 26 -1 18 -10 21 -10 21 4 0 8 5 12 11 9 6 -4 8 -13 6 -19z m-267 -18 c0
-5 -4 -8 -10 -8 -5 0 -10 10 -10 23 0 18 2 19 10 7 5 -8 10 -18 10 -22z m430
22 c0 -5 -4 -10 -10 -10 -5 0 -10 5 -10 10 0 6 5 10 10 10 6 0 10 -4 10 -10z
m-2072 -377 c-4 -22 -22 -20 -26 1 -2 10 3 16 13 16 10 0 15 -7 13 -17z m-755
-245 c11 -17 -8 -42 -56 -73 -21 -14 -25 -20 -15 -26 10 -7 9 -9 -4 -9 -10 0
-18 -5 -18 -10 0 -15 -50 -34 -80 -31 -34 4 -44 15 -25 31 8 7 15 18 15 24 0
24 57 75 105 94 56 22 64 22 78 0z m4870 -59 c3 -11 15 -23 26 -26 12 -3 21
-14 21 -25 0 -15 -5 -18 -22 -13 -13 4 -28 13 -34 21 -6 8 -21 14 -32 14 -11
0 -24 5 -27 10 -3 6 1 10 9 10 9 0 16 7 16 15 0 23 37 18 43 -6z m-5103 -73
c-1 -21 -1 -21 -15 -2 -19 25 -19 37 0 30 8 -4 15 -16 15 -28z m5255 -36 c3
-5 2 -10 -4 -10 -5 0 -13 5 -16 10 -3 6 -2 10 4 10 5 0 13 -4 16 -10z m-937
-449 c3 -8 -1 -12 -9 -9 -7 2 -15 10 -17 17 -3 8 1 12 9 9 7 -2 15 -10 17 -17z
m16 -36 c3 -8 1 -15 -4 -15 -6 0 -10 7 -10 15 0 8 2 15 4 15 2 0 6 -7 10 -15z
m44 -80 c2 -17 8 -35 13 -41 10 -13 2 -24 -19 -24 -9 0 -12 6 -8 16 4 9 2 22
-2 28 -5 6 -12 21 -15 34 -4 18 -2 22 11 20 10 -2 18 -15 20 -33z m55 -110
c15 -14 27 -27 27 -28 0 -1 6 -49 14 -107 17 -135 2 -302 -30 -340 -7 -8 -20
-51 -29 -94 -9 -44 -18 -83 -21 -88 -3 -5 -7 -41 -9 -81 -4 -107 -15 -216 -26
-267 -11 -51 -45 -268 -59 -375 -15 -115 -37 -206 -53 -222 -19 -19 -119 -26
-153 -11 -19 9 -24 17 -19 32 3 12 8 33 11 49 8 34 17 34 38 2 10 -16 14 -34
10 -50 -4 -15 -2 -25 4 -25 12 0 32 61 32 96 0 21 23 58 37 60 20 2 42 17 37
25 -3 5 -1 9 4 9 8 0 21 42 43 145 10 48 26 151 40 255 5 41 13 102 19 135 5
33 12 98 15 145 3 47 8 110 12 140 4 30 7 62 6 70 -1 8 10 33 23 56 26 44 24
76 -4 67 -10 -3 -6 5 10 20 15 14 30 37 34 51 5 21 2 26 -21 32 -23 6 -25 10
-20 38 5 28 5 29 -8 14 -19 -23 -27 -23 -27 2 0 11 7 20 15 20 8 0 15 5 15 11
0 6 -6 8 -12 5 -7 -3 -21 -9 -31 -12 -11 -4 -20 -21 -23 -46 -7 -42 -3 -41
-72 -22 -17 5 -23 3 -22 -7 6 -37 1 -42 -25 -25 -14 9 -43 16 -67 15 -33 -1
-38 -3 -19 -8 39 -11 38 -31 -2 -31 -47 0 -54 -12 -15 -26 18 -7 25 -13 16
-13 -11 -1 -15 -6 -12 -15 7 -17 -33 -46 -63 -46 -26 0 -31 18 -8 26 9 4 20
16 26 27 10 17 9 19 -5 14 -8 -3 -18 -2 -21 2 -3 5 2 11 10 15 8 3 15 17 15
31 0 16 6 25 15 25 8 0 15 7 15 15 0 8 8 15 18 15 24 0 42 19 35 37 -5 13 -2
13 18 3 13 -7 32 -21 41 -30 14 -15 23 -16 62 -7 26 6 46 16 46 24 0 7 -6 13
-12 14 -10 0 -10 2 0 6 6 2 12 10 12 16 0 6 7 18 15 28 14 15 14 18 0 32 -21
21 -19 36 4 30 15 -4 21 2 26 26 4 19 13 31 23 31 15 1 15 2 0 11 -22 12 -23
29 -3 29 19 0 19 19 0 26 -17 7 -11 24 8 24 7 0 25 -11 40 -25z m-4169 -61
c17 -6 24 -84 8 -84 -18 0 -32 26 -32 57 0 36 0 36 24 27z m3606 -64 c0 -13
-7 -20 -19 -20 -14 0 -18 5 -14 20 3 11 12 20 19 20 8 0 14 -9 14 -20z m-3371
-279 c6 -11 11 -27 11 -35 0 -27 -27 -6 -45 35 -10 21 -21 39 -26 39 -9 0 -49
63 -49 76 0 11 95 -88 109 -115z m3810 59 c-8 -5 -17 -6 -22 -1 -4 4 -5 15 -1
24 5 15 7 15 22 1 13 -13 13 -17 1 -24z m-69 -25 c0 -20 -20 -28 -57 -23 l-28
4 35 17 c44 20 50 21 50 2z m-350 -131 c0 -14 -21 -19 -33 -7 -9 9 13 34 24
27 5 -3 9 -12 9 -20z m267 -10 c-3 -3 -12 -4 -19 -1 -8 3 -5 6 6 6 11 1 17 -2
13 -5z m-660 -26 c-3 -8 -6 -5 -6 6 -1 11 2 17 5 13 3 -3 4 -12 1 -19z m558
-8 c-27 -12 -43 -12 -25 0 8 5 22 9 30 9 10 0 8 -3 -5 -9z m-105 -9 c0 -6 -4
-13 -10 -16 -5 -3 -10 1 -10 9 0 9 5 16 10 16 6 0 10 -4 10 -9z m-27 -91 c-15
-60 -33 -80 -33 -37 0 39 21 97 34 97 11 0 11 -11 -1 -60z m-53 -464 c0 -16
-18 -31 -27 -22 -8 8 5 36 17 36 5 0 10 -6 10 -14z m-23 -108 c-3 -8 -6 -5 -6
6 -1 11 2 17 5 13 3 -3 4 -12 1 -19z m24 -181 c-15 -15 -25 17 -16 51 l8 27 9
-34 c6 -22 6 -37 -1 -44z m-77 -32 c-4 -8 -10 -12 -15 -9 -11 6 -2 24 11 24 5
0 7 -7 4 -15z m97 -78 c-1 -12 -15 -9 -19 4 -3 6 1 10 8 8 6 -3 11 -8 11 -12z
m119 -54 c0 -13 -4 -23 -10 -23 -5 0 -10 17 -10 38 0 27 3 33 10 22 5 -8 10
-25 10 -37z m-200 27 c0 -5 -4 -10 -10 -10 -5 0 -10 5 -10 10 0 6 5 10 10 10
6 0 10 -4 10 -10z m-132 -27 c-2 -14 5 -19 35 -21 20 -2 37 -8 37 -14 0 -6 -9
-8 -21 -5 -11 3 -34 1 -50 -5 -39 -14 -45 -6 -23 31 21 35 26 39 22 14z m212
-28 c0 -8 -9 -15 -20 -15 -25 0 -26 17 -2 23 9 3 18 5 20 6 1 0 2 -6 2 -14z
m-50 -5 c0 -5 -19 -10 -42 -9 -37 1 -39 2 -18 9 36 12 60 12 60 0z m-154 -96
c-3 -8 -14 -14 -25 -14 -19 0 -61 -58 -61 -84 0 -41 -62 -106 -102 -106 -9 0
-27 -13 -40 -28 -17 -20 -38 -31 -69 -36 -114 -20 -139 -5 -57 33 28 13 61 33
72 43 12 11 37 30 57 43 23 15 40 36 48 61 15 44 81 104 115 104 11 0 30 7 41
16 18 13 20 13 23 -1 2 -9 1 -23 -2 -31z m584 25 c0 -36 -22 -108 -36 -120 -8
-7 -27 -13 -42 -14 -15 -2 -53 -19 -85 -38 -32 -20 -81 -40 -108 -46 -28 -6
-63 -18 -80 -26 -16 -9 -59 -25 -94 -36 -36 -11 -65 -24 -65 -29 0 -6 -6 -10
-13 -10 -7 0 -51 -16 -97 -36 -47 -19 -101 -42 -120 -49 -19 -7 -62 -27 -95
-43 -33 -16 -85 -39 -115 -51 -100 -41 -301 -136 -340 -162 -14 -9 -68 -39
-120 -66 -258 -136 -334 -198 -533 -433 -19 -22 -117 -198 -117 -210 0 -5 -4
-10 -10 -10 -16 0 -12 14 31 107 102 216 308 424 572 577 88 51 260 136 274
136 4 0 38 14 77 31 82 37 101 44 216 89 47 18 116 48 154 66 38 19 77 34 86
34 9 0 20 4 26 9 5 5 59 26 119 46 114 39 258 102 263 117 2 4 9 8 15 8 7 0
30 14 51 30 22 17 45 30 52 30 24 0 64 23 64 37 0 7 4 13 8 13 4 0 8 9 9 21 4
43 53 70 53 28z m-360 -9 c0 -5 -4 -10 -10 -10 -5 0 -10 5 -10 10 0 6 5 10 10
10 6 0 10 -4 10 -10z m275 -256 c-43 -104 -80 -215 -100 -299 -12 -53 -140
-443 -196 -600 -12 -33 -41 -114 -64 -180 -47 -130 -105 -290 -135 -370 -19
-50 -19 -50 -13 -10 3 22 16 63 28 90 12 28 37 97 55 155 18 58 58 182 90 275
72 212 93 277 113 340 8 28 31 91 50 140 19 50 38 115 42 145 7 59 25 132 35
140 3 3 14 31 24 63 11 31 22 57 26 57 4 0 17 35 29 78 22 74 43 107 49 78 2
-8 -13 -54 -33 -102z m-438 -230 c-3 -3 -12 -4 -19 -1 -8 3 -5 6 6 6 11 1 17
-2 13 -5z m-120 -20 c15 -15 14 -16 -9 -13 -13 2 -35 -3 -49 -12 -13 -9 -39
-19 -57 -22 -35 -7 -140 -46 -207 -77 -22 -10 -66 -29 -97 -41 -32 -12 -58
-25 -58 -30 0 -5 -6 -9 -12 -9 -13 0 -88 -47 -118 -72 -8 -7 -39 -29 -70 -49
-31 -20 -66 -48 -77 -63 -24 -30 -33 -33 -33 -11 0 33 -32 10 -161 -117 -93
-91 -159 -167 -210 -240 -40 -59 -89 -129 -107 -155 -42 -60 -75 -123 -65
-123 5 0 33 23 63 51 62 56 114 85 147 81 14 -2 41 11 69 32 31 24 54 34 66
30 10 -3 18 -1 18 4 0 18 86 101 113 107 15 4 27 10 27 14 0 16 60 41 83 35
14 -3 28 -1 31 5 14 22 26 10 26 -23 0 -18 -7 -39 -15 -46 -23 -19 -9 -29 33
-24 33 5 35 4 20 -9 -22 -17 -23 -47 -3 -47 8 0 15 -5 15 -10 0 -6 -15 -8 -38
-4 -30 5 -43 2 -57 -12 -21 -21 -70 -40 -129 -49 -23 -4 -55 -16 -72 -26 -17
-10 -42 -19 -56 -19 -14 0 -53 -14 -87 -31 -34 -17 -75 -32 -91 -33 -16 -1
-41 -12 -54 -25 -18 -17 -39 -24 -77 -26 -46 -2 -57 -7 -77 -33 -49 -64 -62
-194 -35 -352 5 -29 7 -31 14 -15 4 11 8 36 9 55 1 37 19 70 39 70 6 0 11 4
11 9 0 5 20 34 46 65 32 40 52 56 69 56 13 0 27 5 30 10 3 6 17 10 30 10 15 0
37 13 56 34 17 19 44 40 60 46 16 7 29 18 29 25 0 29 28 37 87 27 48 -8 61 -7
76 6 9 8 17 22 17 31 1 22 30 -47 30 -70 0 -11 5 -19 10 -19 6 0 10 5 10 10 0
17 19 11 30 -10 9 -17 7 -27 -11 -52 l-22 -31 -23 27 c-22 24 -24 25 -33 8
-11 -20 -18 -129 -9 -137 3 -3 18 10 33 30 16 19 34 35 41 35 7 0 50 -18 96
-40 46 -22 95 -40 110 -40 37 0 44 -16 11 -28 -20 -6 -34 -5 -48 4 -16 10 -49
12 -139 7 -109 -6 -119 -8 -128 -28 -6 -13 -27 -28 -49 -35 -27 -9 -36 -16
-27 -22 21 -13 -9 -10 -35 3 -16 9 -22 9 -25 0 -2 -6 -16 -11 -31 -11 -24 0
-51 -7 -111 -27 -11 -4 -10 -7 7 -14 39 -14 111 -20 320 -24 114 -2 211 -8
222 -14 11 -6 34 -8 52 -4 25 5 31 3 27 -8 -4 -11 -20 -13 -67 -10 -56 3 -63
1 -68 -18 -6 -25 -25 -27 -58 -5 -23 15 -27 15 -50 0 -14 -9 -24 -22 -22 -29
1 -6 -7 -12 -18 -12 -14 0 -23 -10 -29 -31 -5 -18 -24 -41 -45 -55 -20 -13
-42 -32 -49 -42 -7 -9 -17 -15 -22 -12 -7 4 -54 -34 -110 -90 -16 -17 -78 -76
-142 -137 -22 -21 -44 -38 -49 -38 -5 0 -9 -5 -9 -11 0 -6 -11 -24 -24 -39
-17 -20 -27 -25 -34 -18 -8 8 -13 3 -18 -16 -7 -30 3 -48 15 -27 5 7 11 13 14
12 6 0 58 20 102 39 26 11 89 22 145 25 55 2 80 12 80 32 0 10 -7 13 -22 8
-21 -5 -21 -5 -5 6 21 12 33 4 39 -26 2 -11 10 -19 16 -17 7 1 12 -4 12 -10
-1 -25 -77 -151 -98 -162 -16 -8 -19 -15 -12 -26 9 -13 11 -13 20 0 7 12 10 8
10 -16 0 -17 -15 -65 -33 -105 -19 -41 -37 -87 -41 -103 -4 -15 -16 -40 -26
-55 -11 -14 -20 -45 -22 -68 -1 -24 -4 -43 -7 -43 -4 0 -7 -14 -8 -31 -1 -17
-6 -36 -11 -43 -5 -6 -14 -31 -21 -56 -7 -25 -17 -54 -22 -65 -4 -11 -15 -41
-23 -67 -9 -26 -20 -56 -25 -65 -5 -10 -17 -47 -26 -83 -9 -36 -22 -74 -29
-85 -19 -30 -28 -86 -16 -100 8 -10 3 -25 -19 -57 -28 -40 -29 -44 -14 -67 11
-17 14 -37 9 -68 -5 -40 -4 -43 12 -34 12 6 24 32 32 68 7 32 26 98 41 147 16
49 29 98 29 109 0 41 56 267 85 347 23 61 44 143 39 151 -2 4 10 33 26 65 16
33 30 72 30 87 0 15 9 45 20 67 11 22 20 45 20 53 0 8 11 36 25 62 14 26 32
76 40 110 8 34 34 100 58 146 27 51 47 104 51 137 4 28 4 52 2 52 -23 0 -57
-29 -70 -59 -9 -20 -28 -41 -41 -48 -24 -10 -25 -9 -25 18 0 16 -4 29 -10 29
-5 0 -10 10 -10 23 0 38 119 95 155 74 22 -12 50 15 79 75 25 51 53 66 42 22
-4 -16 -8 -42 -9 -59 -2 -25 2 -30 24 -33 22 -3 29 3 42 37 28 69 40 62 31
-20 -4 -41 -8 -119 -9 -174 0 -55 -4 -106 -8 -113 -5 -7 -8 -34 -7 -60 3 -67
3 -69 -24 -76 -13 -3 -31 -9 -40 -12 -11 -4 -16 -1 -16 10 0 20 2 20 -54 -5
-28 -12 -55 -34 -69 -54 -12 -19 -38 -43 -57 -54 -35 -20 -80 -90 -80 -125 0
-9 -4 -16 -10 -16 -5 0 -10 -13 -10 -30 0 -31 10 -34 53 -15 9 4 24 4 33 1 14
-5 11 -12 -17 -41 -19 -19 -42 -35 -52 -35 -24 0 -50 -61 -41 -96 6 -24 5 -26
-17 -19 -16 4 -20 3 -11 -3 17 -11 11 -58 -6 -54 -6 1 -12 -7 -12 -19 0 -18 4
-20 25 -15 35 9 31 -8 -9 -39 -19 -14 -39 -40 -46 -58 -7 -18 -17 -42 -23 -55
-9 -19 -7 -25 11 -38 19 -13 20 -18 11 -37 -7 -12 -15 -24 -18 -27 -8 -6 -28
-38 -43 -68 -10 -19 -9 -25 3 -33 25 -16 67 -11 74 10 3 10 14 26 25 36 11 10
20 26 20 35 0 21 80 63 94 50 13 -12 -12 -40 -35 -40 -22 0 -67 -46 -75 -77
-4 -13 -10 -23 -15 -23 -5 0 -15 -11 -21 -25 -6 -14 -16 -25 -23 -25 -26 0
-95 -86 -111 -139 -8 -29 -14 -54 -12 -56 18 -17 110 20 121 49 3 8 21 18 40
21 23 5 46 21 76 56 23 27 49 49 57 49 8 0 13 4 10 8 -2 4 -1 14 5 22 7 13 9
12 9 -2 0 -21 11 -23 28 -6 9 9 16 8 30 -5 25 -23 53 -21 59 4 6 20 6 20 17
-2 20 -40 35 -33 62 26 26 55 26 56 46 38 15 -14 19 -26 15 -55 -8 -56 9 -46
24 15 6 28 20 71 30 94 10 23 23 70 30 105 6 35 15 68 19 73 4 6 17 42 29 80
12 39 35 102 51 140 16 39 32 88 36 110 4 22 18 64 32 95 13 30 37 91 52 135
45 131 116 327 135 370 9 22 24 63 32 90 8 28 27 77 42 110 16 33 41 90 56
128 15 37 29 66 31 65 3 -4 -22 -98 -34 -128 -6 -14 -32 -79 -57 -145 -25 -66
-52 -135 -60 -153 -8 -18 -15 -37 -15 -43 0 -6 -7 -25 -14 -42 -8 -18 -38 -95
-66 -172 -28 -77 -64 -174 -80 -215 -15 -41 -43 -122 -60 -180 -18 -58 -41
-130 -52 -160 -11 -30 -40 -133 -64 -229 -25 -96 -56 -193 -70 -217 -26 -45
-70 -149 -84 -199 -5 -16 -20 -72 -34 -124 -30 -107 -108 -462 -131 -595 -8
-49 -15 -114 -15 -145 0 -31 -5 -63 -10 -71 -7 -10 -9 8 -6 60 14 228 19 280
27 280 5 0 9 15 9 33 0 18 6 56 14 83 8 27 18 67 22 89 4 22 8 42 9 45 1 3 7
39 14 80 13 74 33 146 50 185 14 30 31 86 31 100 0 24 -27 23 -56 -1 -21 -18
-35 -23 -54 -19 -14 4 -26 11 -28 16 -2 5 -8 9 -13 9 -16 0 -135 -60 -119 -60
13 0 13 -1 0 -10 -20 -13 -33 -13 -24 1 3 6 -13 -2 -37 -17 -24 -15 -46 -31
-47 -36 -2 -4 -22 -11 -44 -14 -23 -4 -35 -10 -28 -14 15 -9 9 -13 -57 -34
-29 -10 -56 -22 -59 -28 -4 -5 -21 -7 -40 -4 -35 7 -54 -6 -81 -52 -18 -31
-16 -46 13 -107 18 -39 22 -59 16 -72 -5 -10 -12 -36 -16 -58 -14 -82 -18 -95
-31 -95 -21 0 -24 21 -26 177 -2 210 -2 203 -21 203 -9 0 -20 -4 -23 -10 -8
-13 -45 -13 -45 0 0 6 -4 10 -9 10 -10 0 -8 -100 4 -142 4 -17 3 -28 -3 -28
-15 0 -29 22 -36 56 -9 43 -163 347 -168 332 -7 -21 22 -127 52 -192 17 -35
30 -72 30 -82 0 -10 7 -32 15 -48 8 -15 15 -35 15 -42 0 -8 5 -14 10 -14 6 0
10 -16 10 -35 0 -37 18 -85 32 -85 4 0 8 -5 8 -11 0 -5 11 -27 25 -47 14 -20
25 -49 25 -63 0 -15 7 -32 15 -39 8 -7 15 -20 16 -29 0 -10 2 -11 6 -3 7 17
23 15 23 -3 0 -9 7 -18 15 -21 22 -9 18 -23 -9 -30 -13 -3 -27 -15 -29 -26 -4
-15 -11 -19 -23 -14 -21 8 -81 -11 -113 -36 -14 -11 -27 -15 -30 -9 -12 19
-33 -6 -30 -35 3 -20 0 -28 -10 -26 -16 3 -8 -65 15 -131 8 -23 12 -47 10 -54
-7 -17 20 -154 44 -228 33 -101 77 -247 93 -310 38 -147 30 -270 -19 -302 -14
-9 -26 -14 -28 -12 -2 2 1 38 6 79 5 41 7 91 4 110 -18 127 -48 264 -64 301
-42 92 -62 142 -62 154 0 23 -50 113 -66 119 -28 11 -84 -71 -84 -125 -1 -19
-7 -52 -15 -74 -8 -22 -15 -47 -15 -56 0 -9 -7 -22 -15 -29 -9 -7 -13 -15 -11
-18 3 -2 -1 -17 -9 -32 -13 -25 -19 -27 -67 -26 -52 1 -53 1 -56 34 -4 37 21
74 47 70 33 -4 63 15 78 50 13 30 16 74 14 218 -1 190 9 299 32 349 8 17 29
62 47 102 l32 72 -27 198 c-36 259 -42 403 -22 509 28 144 80 253 145 301 116
87 171 143 176 176 21 145 29 228 46 453 10 143 26 300 34 349 25 144 37 251
45 396 4 74 11 141 15 147 4 7 -7 56 -24 108 -39 116 -37 142 19 270 21 50 49
135 60 188 12 53 33 120 47 149 13 28 28 72 31 97 6 47 36 90 62 90 9 0 22 9
29 20 8 14 23 20 46 20 18 0 39 7 46 15 7 8 17 15 22 15 13 0 82 54 128 98 19
19 52 45 73 58 20 13 37 28 37 33 0 5 21 17 48 27 26 10 49 21 52 25 3 3 23
15 45 26 68 34 180 93 190 101 25 20 154 82 171 82 5 0 25 10 44 22 32 20 91
41 145 52 42 9 61 15 95 30 43 19 39 19 57 0z m80 10 c-3 -3 -12 -4 -19 -1 -8
3 -5 6 6 6 11 1 17 -2 13 -5z m-267 -212 c0 -9 -98 -52 -118 -52 -26 0 -1 19
33 26 19 3 35 10 35 14 0 7 17 15 43 19 4 0 7 -3 7 -7z m-150 -67 c-7 -8 -17
-15 -22 -15 -5 0 -28 -13 -51 -28 -117 -80 -195 -131 -224 -145 -17 -9 -37
-22 -45 -30 -7 -7 -34 -27 -59 -45 -26 -17 -57 -44 -71 -59 -13 -15 -45 -45
-71 -66 -26 -21 -47 -45 -47 -53 0 -9 -13 -29 -29 -45 -17 -16 -33 -38 -36
-49 -7 -21 -25 -28 -25 -10 0 6 11 28 25 50 14 22 25 42 25 45 0 11 74 111
109 148 38 41 221 165 318 217 32 17 62 35 68 41 5 5 17 9 27 9 10 0 18 4 18
9 0 5 19 16 43 24 55 20 62 20 47 2z m-400 -790 c0 -15 -18 -30 -27 -22 -2 3
-2 15 2 26 7 23 25 19 25 -4z m-393 -101 c-3 -3 -12 -4 -19 -1 -8 3 -5 6 6 6
11 1 17 -2 13 -5z m1149 -151 c-9 -21 -21 -46 -26 -55 -6 -10 -10 -24 -10 -32
0 -8 -5 -18 -11 -21 -19 -12 3 68 28 101 12 17 23 37 23 44 0 7 3 10 6 7 4 -3
-1 -23 -10 -44z m-366 -113 c0 -5 -6 -10 -12 -10 -7 0 -31 -2 -53 -5 l-40 -5
40 14 c50 17 65 19 65 6z m273 -115 c-3 -9 -8 -14 -10 -11 -3 3 -2 9 2 15 9
16 15 13 8 -4z m-827 -936 c3 -6 2 -15 -4 -21 -6 -6 -11 -2 -15 11 -5 22 7 29
19 10z m219 1 c-3 -5 -10 -10 -16 -10 -5 0 -9 5 -9 10 0 6 7 10 16 10 8 0 12
-4 9 -10z m2 -196 c-3 -20 -9 -39 -12 -42 -11 -12 -16 8 -10 42 9 48 29 48 22
0z m-18 -357 c1 -51 -2 -68 -11 -65 -15 5 -23 52 -12 76 3 10 6 35 6 57 -1 31
0 36 8 20 5 -11 9 -51 9 -88z m-1554 -217 c-3 -5 -11 -10 -16 -10 -6 0 -7 5
-4 10 3 6 11 10 16 10 6 0 7 -4 4 -10z m-670 -991 c4 -5 -22 -36 -57 -68 -69
-64 -82 -92 -93 -212 -14 -134 60 -350 158 -462 15 -17 30 -41 33 -52 4 -11
17 -33 30 -48 13 -16 24 -33 24 -38 0 -6 10 -20 23 -32 13 -12 26 -30 30 -39
3 -10 11 -18 17 -18 5 0 10 -9 10 -20 0 -11 -3 -20 -6 -20 -11 0 -33 34 -34
51 0 8 -20 29 -45 47 -25 17 -45 38 -45 47 0 8 -7 15 -15 15 -8 0 -15 7 -15
15 0 8 -4 15 -10 15 -10 0 -90 104 -90 117 0 5 -16 26 -35 48 -19 22 -37 54
-41 70 -8 40 -12 45 -27 39 -27 -10 8 -177 53 -257 6 -10 8 -22 4 -28 -3 -6
11 -26 31 -45 32 -29 34 -34 17 -34 -31 0 -35 -16 -10 -35 13 -9 23 -26 23
-40 1 -30 -20 -33 -28 -5 -3 11 -18 25 -34 31 -37 14 -149 3 -157 -17 -9 -24
-36 -16 -36 10 0 13 -9 34 -21 47 -14 16 -19 18 -15 7 6 -20 -25 -50 -31 -31
-2 7 -11 9 -19 6 -8 -3 -14 1 -14 9 0 8 -10 23 -23 35 -13 11 -29 42 -36 69
-7 27 -19 65 -26 84 -24 63 -37 155 -31 221 3 35 7 92 10 126 7 111 61 176
234 284 57 35 117 73 133 83 17 10 56 22 87 26 32 4 60 8 64 9 4 0 10 -4 13
-10z m2190 -262 c-1 -107 -14 -219 -26 -212 -5 4 -9 2 -9 -4 0 -5 5 -11 11
-13 5 -2 13 -21 16 -43 6 -48 -20 -85 -60 -85 -34 0 -43 16 -14 25 19 6 20 8
4 12 -16 4 -17 15 -13 96 6 118 16 197 26 197 5 0 11 13 15 30 4 16 11 32 16
35 5 4 9 20 9 38 0 25 3 29 13 19 8 -9 12 -42 12 -95z m-116 -212 l0 -20 -9
20 c-5 11 -9 27 -9 35 -1 13 0 13 9 0 5 -8 9 -24 9 -35z m-4889 -206 c0 -5 -4
-9 -10 -9 -5 0 -10 7 -10 16 0 8 5 12 10 9 6 -3 10 -10 10 -16z m36 -54 c18
-20 36 -29 53 -28 15 1 18 0 9 -3 -10 -3 -18 -9 -18 -14 0 -12 26 -31 33 -23
4 3 7 -4 7 -16 0 -32 28 -81 46 -81 10 0 14 -6 11 -15 -4 -8 -2 -17 4 -21 6
-3 8 -12 5 -19 -2 -7 2 -16 10 -19 8 -3 14 -12 14 -21 0 -8 6 -15 14 -15 10 0
14 -11 14 -32 0 -18 3 -43 7 -55 7 -22 5 -22 -43 -16 -37 4 -56 1 -73 -11 -47
-32 -184 -11 -200 30 -4 13 -13 24 -17 24 -11 0 -62 -75 -62 -90 0 -18 -18
-11 -25 9 -7 22 -32 18 -51 -7 -6 -8 -15 -13 -21 -11 -6 3 0 37 17 90 33 102
48 132 61 124 8 -6 13 7 10 30 -1 6 5 2 13 -8 14 -17 15 -17 22 5 4 13 7 29 5
36 -1 8 3 20 10 28 8 10 8 14 0 14 -8 0 -7 9 4 30 8 16 15 38 15 48 0 24 54
70 79 68 11 0 32 -14 47 -31z m1269 25 c4 -6 7 -32 6 -58 0 -26 5 -64 11 -85
9 -31 9 -40 -2 -47 -20 -13 -27 -5 -35 40 -4 25 -12 40 -21 40 -8 0 -14 7 -14
15 0 11 -8 15 -27 13 -24 -3 -28 0 -26 19 5 48 88 96 108 63z m2191 -75 c-4
-14 -11 -23 -16 -20 -6 4 -7 13 -1 23 4 9 6 24 3 32 -3 12 -2 12 8 3 8 -7 10
-22 6 -38z m-2149 -141 c-3 -3 -12 -4 -19 -1 -8 3 -5 6 6 6 11 1 17 -2 13 -5z
m902 -18 c-2 -2 -13 -6 -23 -8 -24 -4 -33 19 -9 24 18 4 41 -7 32 -16z m-181
-34 c3 -27 0 -32 -17 -32 -16 0 -21 6 -21 28 0 53 33 56 38 4z m356 -28 c3 -8
2 -12 -4 -9 -6 3 -10 10 -10 16 0 14 7 11 14 -7z m156 6 c0 -5 -2 -10 -4 -10
-3 0 -8 5 -11 10 -3 6 -1 10 4 10 6 0 11 -4 11 -10z m-297 -36 c8 -8 -3 -34
-14 -34 -5 0 -9 9 -9 20 0 19 11 26 23 14z m-2073 -113 c0 -6 -4 -13 -10 -16
-5 -3 -10 1 -10 9 0 9 5 16 10 16 6 0 10 -4 10 -9z m980 -71 c0 -5 -4 -10 -9
-10 -6 0 -13 5 -16 10 -3 6 1 10 9 10 9 0 16 -4 16 -10z m70 -45 c0 -8 -2 -15
-4 -15 -2 0 -6 7 -10 15 -3 8 -1 15 4 15 6 0 10 -7 10 -15z m890 -147 c0 -5 8
-8 18 -7 40 4 52 -1 52 -22 0 -19 4 -21 35 -16 27 4 35 2 35 -9 0 -8 6 -16 13
-18 104 -31 163 -51 167 -56 3 -4 14 -12 25 -18 20 -11 20 -11 0 -12 -12 0
-25 4 -31 10 -15 15 -243 60 -364 72 -125 12 -169 22 -195 43 -14 11 -15 15
-5 13 8 -1 37 4 64 12 38 10 51 11 54 2 5 -16 20 -15 38 2 16 16 94 19 94 4z
m1130 -775 c0 -7 -14 -3 -36 12 -19 13 -44 27 -55 30 -10 4 -19 11 -19 16 0
14 109 -44 110 -58z m528 -260 c-10 -2 -26 -2 -35 0 -10 3 -2 5 17 5 19 0 27
-2 18 -5z m1959 -769 c-3 -3 -12 -4 -19 -1 -8 3 -5 6 6 6 11 1 17 -2 13 -5z"/>
<path d="M6036 12983 c-6 -14 -5 -15 5 -6 7 7 10 15 7 18 -3 3 -9 -2 -12 -12z"/>
<path d="M4620 11879 c0 -24 4 -38 10 -34 6 3 10 22 10 41 0 19 -4 34 -10 34
-5 0 -10 -18 -10 -41z"/>
<path d="M4498 11637 c-6 -16 1 -37 13 -37 12 0 12 37 0 44 -5 3 -11 0 -13 -7z"/>
<path d="M4290 11055 c0 -8 5 -15 10 -15 6 0 10 7 10 15 0 8 -4 15 -10 15 -5
0 -10 -7 -10 -15z"/>
<path d="M5971 6994 c0 -11 3 -14 6 -6 3 7 2 16 -1 19 -3 4 -6 -2 -5 -13z"/>
<path d="M5782 6960 c0 -14 2 -19 5 -12 2 6 2 18 0 25 -3 6 -5 1 -5 -13z"/>
<path d="M5942 6921 c-14 -46 -15 -51 -3 -51 5 0 11 12 13 28 3 15 9 35 13 45
4 9 3 17 -2 17 -6 0 -15 -17 -21 -39z"/>
<path d="M6000 6772 c0 -5 -18 -14 -40 -21 -47 -14 -56 -45 -15 -55 14 -4 25
-11 25 -16 0 -6 13 -10 29 -10 20 0 34 8 45 25 10 16 26 25 41 25 18 0 25 5
25 19 0 10 -7 21 -15 25 -8 3 -15 1 -15 -4 0 -15 -26 -12 -40 5 -13 16 -40 20
-40 7z"/>
<path d="M6225 6730 c-3 -5 -17 -10 -31 -10 -14 0 -32 -6 -39 -14 -12 -12 -12
-16 1 -27 12 -10 20 -9 41 2 14 8 37 14 51 14 14 0 27 6 29 13 3 6 -2 12 -11
12 -9 0 -16 5 -16 10 0 6 -4 10 -9 10 -6 0 -13 -4 -16 -10z"/>
<path d="M5846 6689 c-3 -17 -5 -43 -5 -58 1 -14 5 -2 10 28 10 58 6 83 -5 30z"/>
<path d="M6515 6470 c-42 -12 -94 -52 -103 -80 -14 -38 -1 -83 26 -95 26 -12
29 -34 5 -33 -34 1 -73 -20 -66 -37 3 -9 -4 -29 -16 -45 -13 -19 -17 -31 -10
-36 13 -7 148 -13 167 -6 27 10 34 53 15 104 -14 39 -15 54 -5 81 31 86 25
158 -13 147z"/>
<path d="M6310 6121 c0 -5 -3 -18 -6 -28 -5 -15 -3 -15 7 2 7 11 17 23 23 27
7 5 4 8 -6 8 -10 0 -18 -4 -18 -9z"/>
<path d="M5499 4247 c-8 -7 -24 -25 -34 -41 -19 -29 -19 -29 0 -18 11 5 29 19
39 30 22 25 18 46 -5 29z"/>
<path d="M5372 3818 c-17 -8 -22 -19 -20 -37 2 -15 -5 -34 -14 -43 -10 -10
-18 -25 -18 -34 0 -24 59 -8 95 27 17 16 36 29 42 29 18 0 26 39 13 55 -14 17
-65 18 -98 3z"/>
<path d="M5280 15259 c0 -5 9 -9 20 -9 11 0 20 2 20 4 0 2 -9 6 -20 9 -11 3
-20 1 -20 -4z"/>
<path d="M3326 14504 c-10 -27 -7 -184 4 -184 6 0 10 30 10 69 0 38 3 83 6
100 7 32 -9 44 -20 15z"/>
<path d="M3720 12869 c0 -5 5 -7 10 -4 6 3 10 8 10 11 0 2 -4 4 -10 4 -5 0
-10 -5 -10 -11z"/>
<path d="M3900 12790 c0 -5 5 -10 10 -10 6 0 10 5 10 10 0 6 -4 10 -10 10 -5
0 -10 -4 -10 -10z"/>
<path d="M3640 11546 c0 -31 6 -34 13 -6 3 11 1 23 -4 26 -5 3 -9 -6 -9 -20z"/>
<path d="M1321 10494 c0 -11 3 -14 6 -6 3 7 2 16 -1 19 -3 4 -6 -2 -5 -13z"/>
<path d="M7773 10393 c9 -2 25 -2 35 0 9 3 1 5 -18 5 -19 0 -27 -2 -17 -5z"/>
<path d="M7720 10366 c0 -12 10 -16 43 -15 23 0 51 4 62 9 17 7 15 9 -11 9
-17 1 -46 4 -63 7 -24 5 -31 3 -31 -10z"/>
<path d="M1301 10264 c0 -11 3 -14 6 -6 3 7 2 16 -1 19 -3 4 -6 -2 -5 -13z"/>
<path d="M7525 10260 c3 -5 15 -10 26 -10 10 0 19 5 19 10 0 6 -12 10 -26 10
-14 0 -23 -4 -19 -10z"/>
<path d="M7490 10170 c0 -5 7 -10 15 -10 8 0 15 5 15 10 0 6 -7 10 -15 10 -8
0 -15 -4 -15 -10z"/>
<path d="M1282 10120 c0 -14 2 -19 5 -12 2 6 2 18 0 25 -3 6 -5 1 -5 -13z"/>
<path d="M1281 10064 c0 -11 3 -14 6 -6 3 7 2 16 -1 19 -3 4 -6 -2 -5 -13z"/>
<path d="M1262 9940 c0 -14 2 -19 5 -12 2 6 2 18 0 25 -3 6 -5 1 -5 -13z"/>
<path d="M1252 9850 c0 -19 2 -27 5 -17 2 9 2 25 0 35 -3 9 -5 1 -5 -18z"/>
<path d="M7360 9770 c0 -5 5 -10 11 -10 5 0 7 5 4 10 -3 6 -8 10 -11 10 -2 0
-4 -4 -4 -10z"/>
<path d="M1241 9724 c0 -11 3 -14 6 -6 3 7 2 16 -1 19 -3 4 -6 -2 -5 -13z"/>
<path d="M7352 9690 c0 -14 2 -19 5 -12 2 6 2 18 0 25 -3 6 -5 1 -5 -13z"/>
<path d="M1226 9655 c-3 -9 -5 -40 -4 -68 l1 -52 7 65 c7 70 6 80 -4 55z"/>
<path d="M7405 9651 c-3 -5 -1 -12 5 -16 5 -3 10 1 10 9 0 18 -6 21 -15 7z"/>
<path d="M7327 9598 c-15 -118 -4 -139 32 -62 23 49 21 71 -8 98 -17 16 -18
14 -24 -36z"/>
<path d="M7261 9622 c-11 -21 -121 -98 -134 -94 -5 1 -6 -1 -3 -6 3 -4 -26
-37 -65 -73 -38 -35 -69 -67 -69 -71 0 -14 14 -8 45 17 17 13 35 28 40 33 6 5
32 21 59 37 26 15 50 34 53 41 3 8 9 14 14 14 11 0 71 40 81 55 11 15 10 65
-2 65 -5 0 -14 -8 -19 -18z"/>
<path d="M7429 9555 c-3 -6 -3 -21 1 -35 3 -14 8 -20 11 -15 3 6 3 21 -1 35
-3 14 -8 20 -11 15z"/>
<path d="M7410 9465 c0 -8 3 -15 6 -15 3 0 12 7 20 15 14 13 13 15 -5 15 -12
0 -21 -6 -21 -15z"/>
<path d="M7271 9454 c0 -11 3 -14 6 -6 3 7 2 16 -1 19 -3 4 -6 -2 -5 -13z"/>
<path d="M1198 9418 c-3 -7 -2 -35 2 -63 l7 -50 2 63 c1 60 -2 75 -11 50z"/>
<path d="M6980 9349 c0 -5 5 -7 10 -4 6 3 10 8 10 11 0 2 -4 4 -10 4 -5 0 -10
-5 -10 -11z"/>
<path d="M7306 9305 c-9 -23 -8 -25 9 -25 17 0 19 9 6 28 -7 11 -10 10 -15 -3z"/>
<path d="M1182 9220 c0 -14 2 -19 5 -12 2 6 2 18 0 25 -3 6 -5 1 -5 -13z"/>
<path d="M1166 9063 c-4 -48 -9 -109 -12 -135 -2 -27 -1 -48 4 -48 10 0 28
258 19 266 -3 3 -8 -34 -11 -83z"/>
<path d="M6663 9043 c-3 -9 -28 -37 -55 -63 -26 -25 -48 -54 -48 -63 0 -9 -11
-19 -25 -23 -16 -4 -28 -17 -36 -41 -6 -19 -24 -50 -40 -68 -16 -18 -26 -36
-21 -39 10 -6 57 41 90 90 22 32 63 82 94 115 19 20 68 95 68 104 0 12 -21 3
-27 -12z"/>
<path d="M1147 8857 c-4 -10 -7 -35 -6 -55 l1 -37 9 40 c11 45 8 82 -4 52z"/>
<path d="M6620 8663 c-14 -10 -45 -28 -70 -39 -25 -12 -54 -29 -65 -38 -19
-15 -18 -15 15 -10 43 8 107 43 139 78 28 30 17 34 -19 9z"/>
<path d="M6076 8638 c-9 -12 -16 -28 -16 -35 0 -6 -6 -16 -13 -20 -7 -4 -27
-35 -44 -68 -17 -33 -43 -82 -57 -109 -32 -61 -32 -66 -1 -66 17 0 29 8 35 23
6 12 18 36 28 52 31 50 110 233 104 239 -10 11 -21 6 -36 -16z"/>
<path d="M6374 8645 c-10 -8 -14 -14 -9 -15 15 0 40 18 34 24 -3 3 -14 -1 -25
-9z"/>
<path d="M1120 8609 c0 -5 5 -7 10 -4 6 3 10 8 10 11 0 2 -4 4 -10 4 -5 0 -10
-5 -10 -11z"/>
<path d="M5220 8580 c0 -11 5 -20 10 -20 6 0 10 9 10 20 0 11 -4 20 -10 20 -5
0 -10 -9 -10 -20z"/>
<path d="M1116 8572 c-2 -4 -1 -14 5 -22 7 -12 9 -10 9 8 0 23 -5 28 -14 14z"/>
<path d="M6444 8492 c-97 -60 -142 -95 -156 -122 -7 -14 -21 -32 -30 -41 -10
-9 -18 -21 -18 -28 0 -6 -4 -11 -10 -11 -11 0 -40 -52 -40 -72 0 -15 85 73
119 124 14 19 45 50 70 67 60 41 136 109 130 115 -3 3 -32 -11 -65 -32z"/>
<path d="M6125 8318 c-50 -49 -56 -58 -37 -58 12 0 22 -4 22 -9 0 -5 -26 -38
-59 -74 -32 -35 -70 -90 -85 -121 -15 -31 -39 -78 -54 -104 -30 -51 -76 -176
-70 -193 2 -5 16 16 33 48 16 32 51 96 79 143 27 47 59 103 71 125 11 22 38
66 58 97 20 32 44 73 52 90 9 18 27 52 41 76 14 23 22 41 17 40 -4 -1 -35 -28
-68 -60z"/>
<path d="M6030 8333 c-7 -16 -19 -44 -27 -63 l-14 -35 19 24 c19 23 45 91 38
98 -1 2 -9 -9 -16 -24z"/>
<path d="M1092 8295 c0 -16 2 -22 5 -12 2 9 2 23 0 30 -3 6 -5 -1 -5 -18z"/>
<path d="M1075 8177 c-4 -35 -5 -73 -3 -83 2 -10 8 16 12 59 4 43 6 81 3 84
-3 2 -8 -24 -12 -60z"/>
<path d="M5937 8133 c-11 -13 -17 -27 -14 -30 3 -2 13 7 23 21 22 34 15 42 -9
9z"/>
<path d="M5900 8080 c-9 -6 -10 -10 -3 -10 6 0 15 5 18 10 8 12 4 12 -15 0z"/>
<path d="M1063 8030 c0 -25 2 -35 4 -22 2 12 2 32 0 45 -2 12 -4 2 -4 -23z"/>
<path d="M1037 7783 c-4 -3 -7 -11 -7 -17 0 -6 5 -5 12 2 6 6 9 14 7 17 -3 3
-9 2 -12 -2z"/>
<path d="M958 7085 c-4 -22 -7 -56 -7 -75 l1 -35 9 33 c6 19 9 53 7 75 l-3 42
-7 -40z"/>
<path d="M932 6835 c0 -16 2 -22 5 -12 2 9 2 23 0 30 -3 6 -5 -1 -5 -18z"/>
<path d="M931 6774 c0 -11 3 -14 6 -6 3 7 2 16 -1 19 -3 4 -6 -2 -5 -13z"/>
<path d="M4970 6390 c-8 -11 -22 -20 -32 -20 -25 0 -22 -17 4 -26 20 -6 20 -8
5 -19 -30 -22 -18 -25 16 -5 19 11 38 30 44 43 20 43 -10 65 -37 27z"/>
<path d="M5100 6328 c-8 -21 -17 -38 -21 -38 -4 0 -15 -24 -25 -52 -9 -29 -21
-58 -26 -65 -6 -7 -5 -14 2 -18 6 -4 12 -5 13 -4 16 28 47 103 47 115 0 8 7
26 16 39 9 13 14 32 12 42 -3 13 -8 7 -18 -19z"/>
<path d="M872 6260 c0 -14 2 -19 5 -12 2 6 2 18 0 25 -3 6 -5 1 -5 -13z"/>
<path d="M4996 6065 c-9 -26 -7 -32 5 -12 6 10 9 21 6 23 -2 3 -7 -2 -11 -11z"/>
<path d="M5044 6054 c-4 -10 -17 -43 -30 -73 -65 -147 -170 -496 -153 -507 9
-5 25 27 51 106 9 25 21 59 26 75 14 39 76 241 102 333 12 41 19 76 16 79 -3
3 -8 -3 -12 -13z"/>
<path d="M4772 5810 c0 -14 2 -19 5 -12 2 6 2 18 0 25 -3 6 -5 1 -5 -13z"/>
<path d="M4790 5768 c-1 -18 -3 -87 -5 -153 -3 -106 -2 -117 10 -95 25 45 40
157 27 194 -7 18 -12 42 -12 54 0 11 -4 24 -10 27 -6 4 -10 -7 -10 -27z"/>
<path d="M792 5600 c0 -14 2 -19 5 -12 2 6 2 18 0 25 -3 6 -5 1 -5 -13z"/>
<path d="M4433 5456 c-15 -18 13 -44 84 -80 28 -14 54 -30 58 -36 3 -5 34 -10
69 -10 34 0 67 -5 72 -10 22 -22 43 2 54 58 6 32 13 64 16 72 3 13 -21 15
-169 17 -133 2 -175 -1 -184 -11z"/>
<path d="M4697 4826 c-9 -20 -17 -39 -17 -41 0 -11 29 -4 34 8 3 6 3 2 0 -10
-3 -13 -1 -31 5 -40 8 -14 10 -8 10 27 -1 25 -4 56 -8 69 -6 22 -7 22 -24 -13z"/>
<path d="M0 4524 l0 -284 83 0 c133 0 141 15 157 305 6 105 12 201 13 215 2
21 -3 25 -38 31 -22 3 -79 9 -127 12 l-88 5 0 -284z"/>
<path d="M4123 4766 c-46 -11 -83 -23 -83 -27 0 -27 133 -7 168 26 24 22 -1
22 -85 1z"/>
<path d="M3898 4743 c7 -3 16 -2 19 1 4 3 -2 6 -13 5 -11 0 -14 -3 -6 -6z"/>
<path d="M3848 4713 c7 -3 16 -2 19 1 4 3 -2 6 -13 5 -11 0 -14 -3 -6 -6z"/>
<path d="M3773 4623 c-19 -7 -16 -53 2 -53 10 0 15 10 15 30 0 17 -1 30 -2 29
-2 0 -9 -3 -15 -6z"/>
<path d="M3588 4458 c8 -8 17 -8 34 0 22 10 21 11 -11 11 -27 1 -32 -2 -23
-11z"/>
<path d="M3880 4454 c0 -8 5 -12 10 -9 6 3 10 10 10 16 0 5 -4 9 -10 9 -5 0
-10 -7 -10 -16z"/>
<path d="M3375 4309 c-11 -17 1 -21 15 -4 8 9 8 15 2 15 -6 0 -14 -5 -17 -11z"/>
<path d="M3290 4270 c-13 -8 -13 -10 2 -10 9 0 20 5 23 10 8 13 -5 13 -25 0z"/>
<path d="M1 3395 l-1 -800 25 -12 c14 -6 25 -7 25 -2 0 5 6 9 14 9 22 0 33 33
40 120 2 25 8 70 14 100 12 65 -1 136 -27 143 -14 4 -14 5 0 6 13 1 16 14 14
79 -1 42 3 95 8 116 8 29 7 41 -1 44 -9 3 -9 9 -1 23 5 11 11 47 13 82 2 36
13 82 25 110 12 26 20 56 16 66 -3 10 0 25 7 32 17 18 22 65 9 74 -6 3 -11 14
-11 23 1 12 12 4 35 -23 19 -22 35 -34 35 -27 0 26 -157 448 -230 617 -5 11
-9 -323 -9 -780z m189 251 c0 -3 -4 -8 -10 -11 -5 -3 -10 -1 -10 4 0 6 5 11
10 11 6 0 10 -2 10 -4z"/>
<path d="M2590 4153 c-24 -11 -30 -17 -19 -20 9 -2 32 5 50 16 40 25 19 27
-31 4z"/>
<path d="M3030 4140 c-30 -16 -48 -29 -40 -29 20 -1 96 34 104 48 11 17 -4 13
-64 -19z"/>
<path d="M2498 4113 c-30 -8 -20 -24 10 -17 34 8 53 24 27 23 -11 -1 -28 -3
-37 -6z"/>
<path d="M2413 4083 c9 -2 25 -2 35 0 9 3 1 5 -18 5 -19 0 -27 -2 -17 -5z"/>
<path d="M2330 4070 c-24 -8 -24 -8 7 -9 17 -1 35 4 38 9 7 11 -9 11 -45 0z"/>
<path d="M2211 4037 c-6 -6 -66 -13 -133 -16 -122 -6 -123 -6 -126 -31 -2 -14
-8 -30 -13 -37 -17 -20 8 -25 40 -8 17 8 38 15 48 15 18 0 143 43 175 61 10 5
34 9 53 9 20 0 34 4 30 9 -7 13 -61 11 -74 -2z"/>
<path d="M4711 3859 c-6 -11 -7 -19 -2 -19 10 0 20 -78 10 -82 -3 -2 -4 -23 0
-48 5 -38 10 -46 30 -48 15 -2 28 3 33 12 5 9 14 13 20 10 13 -8 28 14 28 43
0 12 9 38 20 58 11 20 20 40 20 45 0 15 -52 37 -101 42 -37 4 -48 2 -58 -13z"/>
<path d="M1708 3823 c7 -3 16 -2 19 1 4 3 -2 6 -13 5 -11 0 -14 -3 -6 -6z"/>
<path d="M1680 3800 c0 -5 5 -10 10 -10 6 0 10 5 10 10 0 6 -4 10 -10 10 -5 0
-10 -4 -10 -10z"/>
<path d="M3340 3591 c0 -6 5 -13 10 -16 6 -3 10 1 10 9 0 9 -4 16 -10 16 -5 0
-10 -4 -10 -9z"/>
<path d="M3393 3523 c-7 -2 -13 -13 -13 -23 0 -25 32 -80 48 -80 6 0 12 -7 12
-15 0 -19 30 -19 55 -2 17 13 17 15 -5 30 -13 9 -20 22 -17 30 8 22 -22 60
-44 54 -11 -3 -17 -1 -13 4 6 10 -3 11 -23 2z"/>
<path d="M4551 3486 c-7 -9 -24 -16 -37 -16 -15 0 -24 -6 -24 -16 0 -8 -4 -13
-9 -10 -5 3 -11 -1 -15 -9 -3 -8 -12 -15 -20 -15 -8 0 -18 -5 -21 -10 -11 -18
46 -30 111 -24 57 6 68 11 109 50 26 24 41 45 35 49 -6 4 -34 9 -63 12 -41 4
-56 2 -66 -11z"/>
<path d="M4711 3481 c-10 -6 3 -11 42 -16 50 -6 97 -1 86 9 -10 9 -116 15
-128 7z"/>
<path d="M4961 3404 c0 -11 3 -14 6 -6 3 7 2 16 -1 19 -3 4 -6 -2 -5 -13z"/>
<path d="M3520 3392 c0 -5 -10 -14 -22 -20 l-23 -11 23 0 c22 -1 31 -25 12
-36 -13 -8 -13 -45 -1 -45 5 0 12 8 14 18 3 9 3 -5 1 -33 -2 -27 -1 -44 2 -37
3 7 17 17 30 22 30 12 30 30 2 97 -19 47 -38 69 -38 45z"/>
<path d="M367 3373 c-2 -4 -8 -53 -11 -108 -4 -55 -13 -154 -21 -220 -15 -122
-25 -217 -46 -430 -14 -147 -13 -137 -22 -152 -14 -22 18 -15 59 13 21 15 62
49 89 75 88 84 159 130 240 154 22 7 40 17 40 24 0 6 5 15 10 19 6 4 17 21 26
37 8 17 20 39 26 50 6 11 19 40 29 65 10 25 39 68 65 95 25 28 66 84 90 125
24 41 46 77 49 80 3 3 17 21 32 41 14 19 42 46 62 60 20 13 36 27 36 30 0 4
-57 10 -127 13 -71 4 -186 11 -258 16 -251 18 -363 22 -368 13z"/>
<path d="M871 2782 c-11 -33 -18 -39 -45 -41 -17 -1 -49 -6 -71 -10 l-40 -9
35 -1 c19 -1 67 -4 105 -7 43 -3 65 -2 57 3 -21 15 -3 45 22 37 11 -4 23 -11
24 -15 7 -19 35 -8 68 26 19 20 34 40 34 45 0 15 -58 12 -91 -5 -27 -14 -32
-14 -51 0 -31 21 -33 20 -47 -23z"/>
<path d="M936 2711 c5 -5 27 -11 49 -14 l40 -6 -30 14 c-34 16 -75 20 -59 6z"/>
<path d="M1494 2690 c-10 -10 -134 -23 -209 -22 -29 0 -101 6 -200 17 l-50 5
36 -19 c131 -72 236 -86 369 -51 41 11 131 24 200 29 69 5 145 16 170 24 25 9
54 17 65 20 11 2 -47 2 -130 1 -82 -1 -163 -7 -178 -13 -38 -15 -50 -14 -43 4
6 17 -15 20 -30 5z"/>
<path d="M15 2090 c16 -18 16 -20 1 -26 -25 -10 -19 -29 14 -41 l31 -11 -7 34
c-6 34 3 43 23 23 7 -7 13 -7 17 -1 9 15 -34 42 -68 42 -28 0 -29 0 -11 -20z"/>
<path d="M34 1960 c5 -25 2 -30 -14 -30 -11 0 -20 -4 -20 -10 0 -5 5 -10 10
-10 6 0 10 -9 10 -20 0 -11 -4 -20 -10 -20 -17 0 -11 -60 9 -88 14 -20 20 -48
23 -104 3 -74 -3 -97 -16 -63 -23 61 -26 -27 -26 -800 l0 -815 770 0 770 0 0
38 c0 27 -6 41 -21 50 -19 12 -20 12 -14 -10 4 -13 10 -29 13 -36 3 -10 -3
-13 -24 -10 -18 2 -29 9 -29 18 0 9 7 14 19 12 14 -3 17 1 12 13 -3 9 -6 19
-6 21 0 2 -6 4 -14 4 -8 0 -17 9 -21 19 -3 11 -17 35 -30 55 -15 22 -18 33 -9
29 28 -11 14 29 -26 69 -40 41 -50 55 -29 43 6 -4 -1 16 -15 43 -20 40 -31 51
-53 54 -23 2 -29 9 -33 38 -4 19 -19 49 -35 65 l-28 30 7 -28 c4 -19 2 -33 -8
-42 -18 -18 -36 -19 -36 -3 0 6 -2 9 -5 7 -13 -13 10 -47 34 -52 29 -6 81 -52
81 -72 0 -7 9 -15 20 -18 17 -4 20 -13 20 -54 -1 -52 -5 -50 -42 16 -11 21
-22 29 -32 25 -11 -4 -16 0 -16 15 0 12 -3 21 -7 21 -5 0 -15 13 -25 29 -11
21 -22 28 -35 25 -13 -4 -23 3 -33 23 -15 30 -57 73 -72 73 -4 0 -8 -11 -8
-25 0 -14 4 -25 9 -25 5 0 11 -7 15 -15 10 -28 -9 -15 -44 30 -19 24 -49 61
-67 81 -38 42 -50 73 -33 84 8 5 13 30 13 66 0 33 5 65 11 73 8 11 8 15 -1 18
-7 3 -13 10 -13 16 0 6 -6 18 -14 26 -8 9 -29 45 -47 81 -17 36 -46 79 -63 95
-17 17 -41 42 -51 56 -20 26 -65 49 -65 32 0 -5 16 -32 35 -62 23 -34 30 -51
19 -47 -8 3 -17 6 -19 6 -5 0 -115 139 -115 146 0 4 -15 25 -34 48 -49 61 -76
108 -76 136 0 14 -11 45 -25 69 -40 70 -27 98 20 44 41 -49 39 -16 -4 50 -22
35 -41 69 -41 75 0 7 -7 12 -15 12 -12 0 -15 -13 -15 -60 0 -33 -3 -60 -6 -60
-11 0 -32 27 -52 66 -11 21 -33 52 -48 68 l-29 29 -3 -26 c-2 -18 -8 -24 -18
-20 -34 13 -9 -27 52 -82 57 -52 65 -62 60 -86 -7 -35 11 -89 29 -89 23 0 27
18 14 55 -7 19 -9 38 -5 42 14 14 46 -38 46 -76 0 -20 9 -51 20 -69 26 -42 26
-72 1 -72 -11 0 -23 -5 -27 -11 -10 -17 29 -89 49 -89 34 0 55 -19 72 -65 13
-34 15 -48 6 -58 -6 -8 -7 -18 -3 -22 4 -5 1 -5 -5 -1 -7 4 -13 13 -13 21 0 7
-9 17 -20 20 -11 3 -20 15 -20 25 0 10 -8 21 -17 23 -17 4 -17 5 0 6 26 2 21
20 -8 27 -17 4 -33 22 -50 56 -25 51 -88 118 -110 118 -7 0 -18 7 -25 15 -7 8
-16 12 -21 9 -5 -3 -9 -1 -9 5 0 5 -3 17 -7 27 -6 16 -3 15 21 -4 27 -21 76
-30 76 -14 0 30 -77 102 -111 102 -16 0 -59 35 -59 49 0 5 10 11 21 14 19 5
21 10 14 44 -9 50 -12 53 -43 53 -17 0 -32 -8 -41 -22 l-13 -22 -13 25 c-8 13
-17 51 -20 84 -4 33 -15 74 -25 91 -37 65 -47 196 -16 216 6 4 21 5 34 1 17
-4 21 -2 16 11 -3 9 -12 16 -20 16 -8 0 -23 9 -34 20 -27 27 -34 25 -26 -10z
m376 -840 c8 -5 11 -12 7 -16 -4 -4 -15 0 -24 9 -18 18 -8 23 17 7z m192 -7
c10 -9 18 -26 18 -38 0 -12 9 -30 20 -40 11 -10 19 -26 18 -34 -3 -20 42 -82
54 -75 5 3 7 12 4 20 -3 8 -1 14 4 14 6 0 10 -4 10 -9 0 -11 50 -61 62 -61 6
0 8 15 4 38 l-7 37 18 -28 c10 -15 26 -30 35 -33 34 -10 18 -24 -27 -24 -31 0
-51 -6 -64 -19 -20 -20 -20 -20 7 -23 20 -2 30 -11 37 -34 14 -42 28 -58 69
-73 36 -15 59 -50 50 -76 -8 -21 -19 -19 -47 8 -43 40 -65 55 -73 49 -4 -4 -4
-2 -1 4 4 6 -4 21 -18 34 -13 12 -29 35 -35 51 -7 16 -16 29 -20 29 -4 0 -10
11 -12 25 -5 26 6 35 15 13 3 -7 6 -3 6 10 1 14 -3 21 -9 17 -19 -12 -58 23
-70 62 -7 21 -28 68 -47 106 -34 68 -34 80 -1 50z m-239 -53 c3 -11 2 -20 -3
-20 -4 0 -10 9 -13 20 -3 11 -2 20 3 20 4 0 10 -9 13 -20z m105 -5 c17 -37 15
-41 -8 -15 -21 24 -26 40 -12 40 5 0 14 -11 20 -25z m175 -180 c-5 -13 -23
-22 -23 -11 0 15 14 35 21 31 4 -3 6 -12 2 -20z m37 -221 c0 -8 -4 -14 -10
-14 -5 0 -10 9 -10 21 0 11 5 17 10 14 6 -3 10 -13 10 -21z m118 -67 c5 -24
-15 -21 -21 4 -3 13 -1 19 6 16 7 -2 13 -11 15 -20z m136 -83 c11 -28 6 -38
-9 -18 -8 10 -15 22 -15 27 0 13 18 7 24 -9z m445 -364 c0 -10 -3 -8 -9 5 -12
27 -12 43 0 25 5 -8 9 -22 9 -30z"/>
<path d="M760 799 c0 -9 9 -24 20 -34 26 -23 26 -4 0 26 -15 18 -19 20 -20 8z"/>
<path d="M146 1949 c10 -11 28 -26 39 -31 14 -8 12 -2 -9 21 -33 34 -61 44
-30 10z"/>
<path d="M280 1873 c0 -6 5 -15 11 -19 6 -4 24 -35 40 -70 16 -35 34 -64 39
-64 13 0 13 2 -9 52 -20 46 -80 121 -81 101z"/>
<path d="M80 1825 c0 -18 40 -75 52 -75 14 0 9 23 -14 57 -25 36 -38 42 -38
18z"/>
<path d="M395 1773 c7 -30 21 -50 30 -41 8 8 -16 68 -27 68 -6 0 -7 -11 -3
-27z"/>
<path d="M150 1740 c0 -21 17 -46 25 -38 4 4 0 17 -9 30 -10 14 -16 17 -16 8z"/>
<path d="M480 1736 c0 -2 7 -9 15 -16 13 -11 14 -10 9 4 -5 14 -24 23 -24 12z"/>
<path d="M420 1666 c0 -11 110 -116 123 -116 19 0 5 54 -22 78 -32 30 -101 56
-101 38z"/>
<path d="M749 1478 c-3 -91 -1 -111 12 -119 19 -11 21 -6 10 24 -6 14 -8 48
-4 75 3 32 1 52 -6 56 -7 5 -11 -7 -12 -36z"/>
<path d="M829 1424 c-18 -49 2 -71 91 -99 19 -6 16 -1 -13 25 -39 33 -48 60
-22 60 22 0 75 -41 75 -57 0 -8 7 -25 16 -38 9 -13 13 -28 10 -33 -3 -5 3 -17
14 -27 19 -18 20 -17 20 9 0 53 -49 122 -120 169 -35 24 -59 21 -71 -9z"/>
<path d="M392 1288 c-17 -17 -15 -47 3 -54 8 -4 15 -12 15 -20 0 -25 18 -15
23 14 4 18 1 31 -11 40 -15 11 -15 14 -2 22 13 9 13 10 0 10 -9 0 -21 -5 -28
-12z"/>
<path d="M860 1276 c0 -9 7 -12 20 -9 11 3 20 1 20 -3 1 -18 28 -45 50 -49 13
-2 43 -20 68 -40 68 -53 71 -42 5 16 -79 69 -163 113 -163 85z"/>
<path d="M2840 1286 c0 -2 9 -6 20 -9 11 -3 18 -1 14 4 -5 9 -34 13 -34 5z"/>
<path d="M754 1266 c-4 -11 1 -25 14 -39 30 -29 37 -16 13 24 -17 28 -21 30
-27 15z"/>
<path d="M2162 1240 c0 -14 2 -19 5 -12 2 6 2 18 0 25 -3 6 -5 1 -5 -13z"/>
<path d="M2800 1250 c0 -5 7 -10 15 -10 8 0 15 5 15 10 0 6 -7 10 -15 10 -8 0
-15 -4 -15 -10z"/>
<path d="M1993 1225 c-6 -14 -9 -25 -6 -25 9 0 33 29 33 39 0 19 -15 11 -27
-14z"/>
<path d="M842 1209 c1 -29 2 -30 15 -13 15 20 13 36 -4 41 -7 3 -11 -8 -11
-28z"/>
<path d="M1040 1223 c0 -12 49 -47 56 -40 9 9 -9 38 -21 33 -7 -2 -18 1 -24 7
-8 8 -11 8 -11 0z"/>
<path d="M2418 1213 c-10 -2 -18 -13 -18 -23 0 -32 -22 -70 -42 -70 -10 0 -18
1 -18 3 0 1 -7 20 -15 42 l-14 40 -1 -42 0 -43 -49 0 c-35 0 -51 -4 -55 -15
-5 -14 -10 -13 -36 6 -16 13 -30 29 -30 36 0 7 -11 13 -26 13 -18 0 -28 6 -31
21 -4 15 -12 19 -32 17 -39 -5 -39 -34 0 -42 27 -5 30 -8 19 -21 -15 -18 -46
-20 -53 -2 -4 8 -8 9 -14 1 -4 -6 -25 -14 -45 -18 -32 -6 -38 -11 -38 -31 0
-34 -12 -31 -51 13 -28 30 -41 37 -72 37 -38 0 -48 -8 -22 -19 8 -3 15 -12 15
-19 0 -8 7 -20 15 -27 23 -19 18 -30 -15 -30 -16 0 -30 5 -30 10 0 6 -9 10
-20 10 -11 0 -20 6 -20 14 0 7 -16 28 -37 45 -28 24 -39 28 -50 19 -10 -8 -11
-13 -2 -19 8 -4 9 -19 5 -43 -6 -31 -4 -36 12 -36 10 0 24 6 31 13 11 10 14
10 18 0 3 -7 9 -13 14 -13 5 0 18 -9 29 -20 l20 -20 -20 -20 c-11 -11 -30 -20
-42 -20 -21 1 -21 2 -5 11 20 12 23 48 5 54 -7 2 -48 7 -91 10 l-77 7 -6 39
c-6 38 -8 39 -45 39 l-39 0 0 -60 c0 -46 3 -60 14 -60 8 0 18 5 21 10 8 13 45
13 45 1 0 -5 -9 -11 -21 -13 l-20 -3 20 -22 c22 -24 16 -34 -29 -48 -30 -10
-35 -9 -35 7 0 6 -6 13 -14 16 -16 5 -16 7 27 -75 17 -35 43 -70 57 -79 15
-10 25 -26 25 -41 0 -13 14 -38 30 -56 17 -18 33 -40 36 -49 3 -10 9 -18 13
-18 5 0 14 -13 21 -29 6 -16 25 -41 41 -55 16 -14 29 -33 29 -41 0 -9 11 -33
25 -55 14 -22 25 -42 25 -44 0 -6 39 -64 57 -86 7 -8 26 -31 43 -51 16 -20 30
-41 30 -47 0 -5 17 -34 37 -63 20 -30 49 -78 65 -107 20 -39 30 -49 34 -38 8
20 30 21 41 1 8 -13 218 -15 1823 -13 l1815 3 0 25 c0 16 -6 25 -15 25 -8 0
-16 11 -18 25 -4 30 -58 84 -67 66 -3 -8 -7 -8 -11 2 -3 6 -10 12 -15 12 -11
0 -49 -37 -49 -48 0 -5 -10 -14 -22 -20 -22 -10 -21 -11 8 -11 21 -1 34 5 38
15 4 11 14 15 31 12 16 -4 25 0 28 11 3 9 5 4 6 -10 1 -22 -4 -28 -29 -33 -16
-3 -43 -9 -58 -12 -21 -4 -46 3 -90 25 -71 36 -72 36 -72 16 0 -8 -5 -15 -10
-15 -13 0 -32 49 -26 67 3 7 -6 20 -20 29 -23 16 -24 18 -8 35 16 18 16 19 1
19 -10 0 -17 5 -17 11 0 7 -8 18 -17 25 -13 9 -15 16 -7 24 6 6 9 22 6 35 -5
31 -41 44 -57 21 -7 -9 -17 -16 -22 -16 -5 0 -15 -11 -21 -25 -7 -14 -19 -28
-27 -31 -8 -4 -15 -15 -15 -25 0 -13 -7 -19 -24 -19 -25 0 -36 21 -36 71 0 15
-6 41 -14 59 -10 25 -11 41 -3 67 10 32 9 36 -18 57 -23 18 -43 24 -90 25
l-60 1 0 -31 c0 -24 6 -34 23 -40 12 -5 25 -15 28 -23 7 -18 -20 -72 -43 -85
-13 -8 -15 -13 -6 -18 13 -9 21 -88 10 -99 -4 -4 -7 0 -7 9 0 8 -7 17 -16 19
-12 2 -17 20 -20 73 -3 38 -11 76 -19 85 -7 8 -11 26 -8 41 4 20 -3 33 -27 57
-29 29 -37 32 -96 32 -57 0 -150 15 -164 27 -5 5 21 23 33 23 4 0 7 -8 7 -17
0 -14 2 -15 9 -5 4 7 6 25 3 38 -3 19 0 26 17 31 11 3 21 12 21 21 0 16 -45
62 -61 62 -15 0 -10 -40 6 -57 12 -12 13 -18 4 -29 -17 -21 -43 -17 -68 10
-13 14 -33 26 -45 28 -15 2 -21 10 -20 26 0 12 -5 22 -13 22 -7 0 -13 5 -13
10 0 7 -7 7 -21 0 -29 -16 -52 -5 -44 21 6 18 4 20 -17 14 -31 -10 -33 -12
-21 -27 5 -7 9 -24 9 -38 -1 -14 4 -31 11 -38 10 -10 7 -19 -14 -42 -24 -28
-28 -29 -44 -14 -19 17 -39 12 -39 -11 0 -7 7 -16 16 -19 8 -3 12 -10 9 -16
-3 -6 1 -13 9 -16 31 -12 15 -19 -42 -18 -81 2 -78 1 -97 30 -15 23 -15 27 -2
42 11 12 14 31 10 67 -3 27 -9 52 -13 55 -5 3 -5 12 0 20 12 19 13 60 1 60 -5
0 -14 -7 -21 -15 -11 -13 -14 -12 -29 7 -14 17 -21 19 -39 9 -25 -13 -65 -16
-43 -2 19 12 -4 24 -26 13 -10 -5 -24 -7 -32 -4 -8 3 -11 0 -7 -7 4 -7 -2 -15
-16 -20 -18 -7 -28 -3 -47 15 -23 23 -23 25 -7 58 17 37 20 56 9 56 -12 0 -35
-16 -34 -24 3 -24 -1 -36 -14 -36 -8 0 -15 9 -15 19 0 28 -17 35 -25 12 -3
-11 1 -34 10 -51 9 -17 11 -30 5 -30 -5 0 -10 -11 -10 -24 0 -41 -10 -58 -26
-45 -8 6 -14 20 -14 30 0 14 -7 19 -28 19 -19 0 -30 7 -37 23 -6 12 -19 22
-30 22 -44 0 -89 54 -47 56 9 1 0 6 -21 11 -26 7 -41 7 -51 -1 -19 -16 -8 -61
14 -61 10 0 23 -6 29 -14 9 -11 6 -18 -16 -35 l-27 -22 -14 24 c-17 28 -62 53
-112 63 l-34 6 24 20 c14 10 34 27 46 38 13 12 29 17 42 13 15 -4 22 -1 22 9
0 17 -31 48 -47 48 -6 0 -14 6 -16 13 -4 7 -8 3 -12 -10 -9 -27 -14 -28 -29
-8 -6 9 -29 18 -51 22 -38 6 -57 21 -61 51 -2 8 -5 17 -9 20 -3 4 -3 -9 0 -28
3 -19 13 -38 21 -43 19 -11 18 -37 -1 -37 -9 0 -24 -13 -33 -30 -22 -38 -39
-38 -44 0 -3 17 -1 30 4 30 4 0 8 7 8 15 0 8 -7 15 -15 15 -10 0 -15 -10 -15
-29 0 -31 -22 -57 -40 -46 -7 4 -14 -2 -17 -15 -4 -14 -11 -19 -21 -15 -11 4
-13 0 -9 -16 7 -26 -10 -62 -24 -53 -5 3 -9 22 -8 43 3 50 -6 63 -39 54 -24
-6 -26 -5 -13 11 12 14 12 16 -1 11 -8 -3 -27 -1 -41 4 -23 9 -27 8 -27 -9 0
-10 5 -22 10 -25 6 -3 10 -10 10 -16 0 -5 -4 -9 -10 -9 -5 0 -10 6 -10 14 0 8
-7 16 -15 20 -19 7 -20 46 -1 46 7 0 16 11 18 24 4 21 2 23 -21 17 -20 -6 -29
-18 -39 -55 -17 -59 -11 -76 28 -76 25 0 30 -4 30 -25 0 -21 -5 -25 -29 -25
-23 0 -30 5 -33 23 -2 12 -9 21 -16 19 -6 -1 -12 2 -12 6 0 5 -10 19 -22 31
l-21 24 -14 -27 c-18 -34 -24 -33 -17 2 3 19 -2 35 -18 54 -13 15 -31 39 -41
53 -10 14 -22 23 -27 20 -10 -6 -40 38 -40 60 0 8 9 15 20 15 11 0 20 -5 20
-11 0 -5 5 -7 10 -4 6 3 10 14 10 24 0 16 -5 17 -37 10 -83 -18 -93 -22 -99
-41 -4 -15 -9 -17 -20 -7 -11 9 -14 7 -14 -12 -1 -21 -2 -22 -11 -6 -5 9 -7
22 -3 28 3 6 -4 5 -17 -3 -29 -17 -71 -17 -76 -1 -3 7 7 18 21 24 36 17 37 59
1 59 -27 0 -48 31 -27 38 7 2 10 8 6 13 -5 9 -8 10 -36 2z m-578 -119 c0 -14
-4 -23 -10 -19 -5 3 -10 15 -10 26 0 10 5 19 10 19 6 0 10 -12 10 -26z m441
-14 c21 0 39 -5 39 -11 0 -6 -17 -9 -42 -7 -34 2 -43 7 -45 23 -2 11 0 14 3 8
3 -7 23 -13 45 -13z m218 -41 c-16 -10 -23 -4 -14 10 3 6 11 8 17 5 6 -4 5 -9
-3 -15z m-662 -21 c-3 -8 -6 -5 -6 6 -1 11 2 17 5 13 3 -3 4 -12 1 -19z m83
12 c0 -13 -11 -13 -30 0 -12 8 -11 10 8 10 12 0 22 -4 22 -10z m504 -15 c-29
-29 -36 -31 -27 -9 3 9 0 20 -8 25 -10 6 -2 9 23 9 l37 0 -25 -25z m183 19
c-3 -3 -12 -4 -19 -1 -8 3 -5 6 6 6 11 1 17 -2 13 -5z m85 -34 c11 0 18 -7 18
-19 0 -11 6 -21 13 -24 9 -4 9 -7 0 -17 -10 -11 -17 -11 -40 -1 -26 13 -27 14
-8 22 18 7 18 8 -5 9 -14 2 -31 2 -39 1 -24 -4 -41 8 -34 24 3 10 13 15 24 12
11 -3 22 -1 25 5 4 6 10 6 17 -1 6 -6 19 -11 29 -11z m-766 -24 c-9 -29 -13
-32 -28 -22 -17 10 -17 11 2 20 11 5 20 15 20 23 0 7 4 13 9 13 4 0 3 -15 -3
-34z m390 -13 c-10 -10 -19 5 -10 18 6 11 8 11 12 0 2 -7 1 -15 -2 -18z m-152
1 c3 -8 2 -12 -4 -9 -6 3 -10 10 -10 16 0 14 7 11 14 -7z m1216 -28 c0 -36
-10 -56 -29 -56 -9 0 -21 -8 -28 -18 -14 -23 -69 -27 -77 -6 -11 28 5 43 42
41 32 -2 37 1 35 18 -1 13 7 25 20 32 33 16 37 15 37 -11z m87 18 c-3 -3 -12
-4 -19 -1 -8 3 -5 6 6 6 11 1 17 -2 13 -5z m-887 -28 c0 -11 -28 -55 -32 -50
-7 6 15 54 25 54 4 0 7 -2 7 -4z m-1030 -36 c9 -17 8 -20 -10 -20 -13 0 -20 7
-20 20 0 11 4 20 10 20 5 0 14 -9 20 -20z m1167 -6 c-3 -3 -12 -4 -19 -1 -8 3
-5 6 6 6 11 1 17 -2 13 -5z m43 -19 c0 -8 -4 -15 -10 -15 -5 0 -10 7 -10 15 0
8 5 15 10 15 6 0 10 -7 10 -15z m280 -10 c0 -16 -26 -20 -57 -8 -16 6 -15 8 7
14 40 11 50 10 50 -6z m140 -25 c0 -15 -19 -22 -40 -15 -25 8 -26 22 -2 27 21
5 42 -1 42 -12z m180 -30 c0 -5 -5 -10 -11 -10 -5 0 -7 5 -4 10 3 6 8 10 11
10 2 0 4 -4 4 -10z m-720 -15 c0 -8 -2 -15 -4 -15 -2 0 -6 7 -10 15 -3 8 -1
15 4 15 6 0 10 -7 10 -15z m967 -27 c-3 -8 -6 -5 -6 6 -1 11 2 17 5 13 3 -3 4
-12 1 -19z m348 -17 c-3 -6 -14 -15 -25 -21 -15 -8 -17 -6 -13 10 3 10 12 21
22 23 20 4 25 1 16 -12z m-125 -12 c0 -5 -7 -9 -15 -9 -9 0 -12 6 -9 15 6 15
24 11 24 -6z m-847 -5 c8 -9 -11 -44 -23 -44 -6 0 -10 11 -10 25 0 23 18 34
33 19z m1014 -10 c-3 -3 -12 -4 -19 -1 -8 3 -5 6 6 6 11 1 17 -2 13 -5z
m-2317 -110 c0 -8 -4 -12 -10 -9 -5 3 -10 10 -10 16 0 5 5 9 10 9 6 0 10 -7
10 -16z m2648 -37 c15 -18 -10 -51 -26 -35 -16 16 -15 48 2 48 7 0 18 -6 24
-13z m492 -187 c-6 -11 -13 -20 -15 -20 -3 0 -5 9 -5 20 0 11 7 20 15 20 13 0
14 -4 5 -20z m443 -227 c-7 -2 -19 -2 -25 0 -7 3 -2 5 12 5 14 0 19 -2 13 -5z
m127 -81 c0 -4 -5 -13 -11 -19 -9 -9 -15 -8 -25 2 -20 19 -17 25 11 25 14 0
25 -4 25 -8z"/>
<path d="M1220 1200 c0 -5 5 -10 11 -10 5 0 7 5 4 10 -3 6 -8 10 -11 10 -2 0
-4 -4 -4 -10z"/>
<path d="M1688 1203 c7 -3 16 -2 19 1 4 3 -2 6 -13 5 -11 0 -14 -3 -6 -6z"/>
<path d="M1930 1196 c0 -9 61 -48 66 -43 8 8 -34 47 -51 47 -8 0 -15 -2 -15
-4z"/>
<path d="M2140 1190 c0 -5 5 -10 10 -10 6 0 10 5 10 10 0 6 -4 10 -10 10 -5 0
-10 -4 -10 -10z"/>
<path d="M2500 1190 c0 -5 5 -10 10 -10 6 0 10 5 10 10 0 6 -4 10 -10 10 -5 0
-10 -4 -10 -10z"/>
<path d="M1250 1170 c0 -5 5 -10 11 -10 5 0 7 5 4 10 -3 6 -8 10 -11 10 -2 0
-4 -4 -4 -10z"/>
<path d="M1440 1150 c0 -5 5 -10 10 -10 6 0 10 5 10 10 0 6 -4 10 -10 10 -5 0
-10 -4 -10 -10z"/>
<path d="M1920 1130 c0 -5 5 -10 11 -10 5 0 7 5 4 10 -3 6 -8 10 -11 10 -2 0
-4 -4 -4 -10z"/>
<path d="M1300 1095 c5 -14 14 -31 20 -38 48 -59 60 -77 60 -91 0 -16 25 -23
33 -8 3 4 7 23 11 42 3 19 3 29 0 23 -3 -7 -11 -13 -17 -13 -13 0 -97 89 -97
102 0 4 -4 8 -10 8 -6 0 -6 -9 0 -25z"/>
<path d="M2760 1103 c0 -28 29 -59 53 -57 12 1 13 1 2 -3 -24 -7 -17 -24 15
-36 18 -7 30 -19 30 -29 0 -10 5 -18 10 -18 6 0 10 10 10 23 0 13 5 28 12 35
6 6 8 15 4 19 -4 4 -11 1 -16 -7 -7 -11 -10 -8 -14 13 -3 15 -8 39 -11 53 -6
24 -7 25 -24 10 -23 -21 -41 -20 -57 2 -12 16 -13 15 -14 -5z"/>
<path d="M3032 1095 c0 -16 2 -22 5 -12 2 9 2 23 0 30 -3 6 -5 -1 -5 -18z"/>
<path d="M3040 1050 c0 -5 5 -10 11 -10 5 0 7 5 4 10 -3 6 -8 10 -11 10 -2 0
-4 -4 -4 -10z"/>
<path d="M2938 1043 c7 -3 16 -2 19 1 4 3 -2 6 -13 5 -11 0 -14 -3 -6 -6z"/>
<path d="M3148 1043 c7 -3 16 -2 19 1 4 3 -2 6 -13 5 -11 0 -14 -3 -6 -6z"/>
<path d="M878 1020 c7 -20 61 -92 114 -153 15 -18 28 -44 28 -58 0 -34 45 -96
54 -74 3 9 0 24 -6 35 -9 14 -9 25 0 46 l13 27 24 -23 c25 -23 25 -23 25 -2 0
21 -43 62 -66 62 -7 0 -14 -8 -16 -17 -3 -14 -14 -7 -56 33 -28 28 -52 54 -52
58 0 11 -54 86 -62 86 -4 0 -4 -9 0 -20z"/>
<path d="M3105 1030 c3 -6 -3 -24 -15 -40 l-21 -30 21 0 c11 0 23 -7 26 -15 4
-8 12 -15 19 -15 20 0 30 21 14 31 -11 6 -10 9 4 15 10 3 17 17 17 31 0 22 -3
24 -25 19 -14 -4 -25 -2 -25 4 0 5 -5 10 -11 10 -5 0 -7 -5 -4 -10z"/>
<path d="M1160 920 c0 -5 5 -10 11 -10 5 0 7 5 4 10 -3 6 -8 10 -11 10 -2 0
-4 -4 -4 -10z"/>
<path d="M3894 916 c-8 -22 3 -33 18 -18 9 9 9 15 0 24 -9 9 -13 7 -18 -6z"/>
<path d="M4000 911 c0 -11 26 -22 34 -14 3 3 3 10 0 14 -7 12 -34 11 -34 0z"/>
<path d="M3963 848 c2 -7 10 -13 17 -13 7 0 15 6 18 13 2 7 -5 12 -18 12 -13
0 -20 -5 -17 -12z"/>
<path d="M3751 834 c0 -11 3 -14 6 -6 3 7 2 16 -1 19 -3 4 -6 -2 -5 -13z"/>
<path d="M4080 835 c0 -9 6 -12 15 -9 8 4 15 10 15 15 0 5 -7 9 -15 9 -8 0
-15 -7 -15 -15z"/>
<path d="M4130 820 c0 -5 7 -10 16 -10 8 0 12 5 9 10 -3 6 -10 10 -16 10 -5 0
-9 -4 -9 -10z"/>
<path d="M4381 800 c-10 -6 -9 -10 5 -19 15 -8 16 -11 4 -12 -8 0 1 -5 20 -9
41 -10 48 -6 30 15 -20 24 -45 35 -59 25z"/>
<path d="M1106 774 c-22 -22 -20 -27 14 -42 23 -11 30 -20 30 -42 0 -27 15
-48 26 -37 9 9 -17 90 -36 114 -17 21 -20 22 -34 7z"/>
<path d="M1325 758 c-9 -24 1 -48 20 -48 19 0 19 20 1 46 -14 18 -15 18 -21 2z"/>
<path d="M1330 671 c0 -5 5 -13 10 -16 6 -3 10 -2 10 4 0 5 -4 13 -10 16 -5 3
-10 2 -10 -4z"/>
<path d="M1304 609 c31 -33 56 -64 56 -69 0 -9 30 -23 37 -17 15 16 -103 147
-133 147 -11 0 3 -21 40 -61z"/>
<path d="M4225 660 c-8 -13 5 -13 25 0 13 8 13 10 -2 10 -9 0 -20 -4 -23 -10z"/>
<path d="M4185 640 c-3 -5 1 -10 9 -10 9 0 16 5 16 10 0 6 -4 10 -9 10 -6 0
-13 -4 -16 -10z"/>
<path d="M4661 624 c-17 -39 -6 -64 30 -64 19 0 29 5 29 15 0 8 -4 15 -9 15
-5 0 -12 14 -16 30 -8 37 -18 38 -34 4z"/>
<path d="M4876 641 c-7 -12 3 -41 15 -41 4 0 14 8 21 19 7 10 22 21 33 24 11
2 1 5 -22 6 -23 0 -44 -3 -47 -8z"/>
<path d="M1065 610 c3 -5 10 -10 16 -10 5 0 9 5 9 10 0 6 -7 10 -16 10 -8 0
-12 -4 -9 -10z"/>
<path d="M980 597 c0 -8 11 -20 25 -27 20 -11 30 -11 52 -1 l28 13 -25 14
c-32 17 -80 18 -80 1z"/>
<path d="M5556 451 c-6 -9 44 -31 70 -31 23 0 16 14 -13 28 -32 14 -50 15 -57
3z"/>
<path d="M1460 423 c0 -5 6 -18 14 -29 17 -22 35 -11 20 13 -12 19 -34 29 -34
16z"/>
<path d="M1600 403 c0 -5 19 -28 41 -53 40 -45 40 -45 23 -10 -9 19 -23 43
-32 53 -16 18 -32 23 -32 10z"/>
<path d="M5520 400 c0 -5 19 -10 43 -9 36 1 38 2 17 9 -36 12 -60 12 -60 0z"/>
<path d="M5218 393 c7 -3 16 -2 19 1 4 3 -2 6 -13 5 -11 0 -14 -3 -6 -6z"/>
<path d="M1690 286 c0 -15 24 -66 31 -66 13 0 11 44 -3 58 -11 11 -28 16 -28
8z"/>
<path d="M5440 250 l0 -40 40 0 40 0 0 40 0 40 -40 0 -40 0 0 -40z"/>
<path d="M1564 225 c9 -16 20 -37 25 -45 5 -8 16 -32 24 -52 16 -37 17 -37 69
-35 46 2 54 -1 63 -21 5 -12 13 -22 17 -22 4 0 1 15 -8 32 -12 26 -22 33 -45
34 -23 1 -45 16 -95 70 -43 44 -60 58 -50 39z"/>
<path d="M5615 180 l-20 -9 20 1 c11 0 31 4 45 8 l25 8 -25 0 c-14 0 -34 -3
-45 -8z"/>
<path d="M1781 131 c19 -40 39 -61 39 -42 0 21 -34 81 -46 81 -8 0 -6 -12 7
-39z"/>
<path d="M5490 150 c19 -13 30 -13 30 0 0 6 -10 10 -22 10 -19 0 -20 -2 -8
-10z"/>
<path d="M1667 73 c-4 -3 -7 -21 -7 -40 l0 -33 50 0 c37 0 50 4 50 14 0 8 -8
17 -19 21 -10 3 -26 14 -36 25 -19 21 -28 24 -38 13z"/>
<path d="M6000 47 c0 -36 -1 -37 -40 -37 -29 0 -40 4 -40 15 0 18 -12 19 -28
3 -23 -23 -12 -28 58 -28 l71 0 -7 38 c-9 50 -14 53 -14 9z"/>
<path d="M5757 44 c-4 -4 -7 -14 -7 -23 0 -11 3 -12 11 -4 6 6 10 16 7 23 -2
6 -7 8 -11 4z"/>
<path d="M5831 34 c0 -11 3 -14 6 -6 3 7 2 16 -1 19 -3 4 -6 -2 -5 -13z"/>
<path d="M1600 10 c0 -5 5 -10 10 -10 6 0 10 5 10 10 0 6 -4 10 -10 10 -5 0
-10 -4 -10 -10z"/>
<path d="M6545 10 c-3 -5 -1 -10 4 -10 6 0 11 5 11 10 0 6 -2 10 -4 10 -3 0
-8 -4 -11 -10z"/>
</g>
</svg>
